<svg width="24" height="24" viewBox="0 0 24 24" fill="none" xmlns="http://www.w3.org/2000/svg">
<path d="M0.420469 5.30369C0.197374 3.55079 1.56331 2 3.33034 2H20.6697C22.4367 2 23.8026 3.5508 23.5795 5.30369L22.5508 13.3869C22.5171 13.6515 22.5197 13.9195 22.5584 14.1835L23.5066 20.6405C23.7667 22.4112 22.3941 24 20.6044 24H3.39558C1.60587 24 0.233324 22.4112 0.49336 20.6405L1.44159 14.1835C1.48035 13.9195 1.48292 13.6515 1.44924 13.3869L0.420469 5.30369Z" fill="#010101"/>
<path d="M8 4V1" stroke="#010101" stroke-width="1.46667" stroke-linecap="round"/>
<path d="M16 4V1" stroke="#010101" stroke-width="1.46667" stroke-linecap="round"/>
<path d="M15.0565 18.4515L15.8913 9.28976L14.5739 9.70485C14.5087 9.71968 14.4565 9.7345 14.4043 9.7345C14.1696 9.7345 14 9.57143 14 9.30458C14.013 8.99326 14.1826 8.72642 14.5348 8.62264C16.4783 8.01482 16.5304 8 16.5826 8C16.8043 8 16.9348 8.14825 16.9739 8.2965L17 8.54852C17 8.68194 16.987 8.84501 16.9739 9.05256L16.113 18.3625C16.0739 18.7332 15.8522 19 15.5391 19C15.2391 19 15.0565 18.7776 15.0565 18.4515Z" fill="#F8F6F0"/>
<path d="M9.59459 8C11.1216 8 12 9.06041 12 10.4319C12 11.6195 11.4054 12.482 10.6351 13.1324C11.5135 13.7404 11.8919 14.6311 11.8919 15.5501C11.8919 17.5578 10.3378 19 8.60811 19C7.31081 19 6 18.0668 6 16.7378C6.04054 16.3702 6.27027 16.1722 6.51351 16.1722C6.68919 16.1722 6.90541 16.2995 6.98649 16.5398C7.27027 17.4589 7.86487 17.883 8.62162 17.883C9.86487 17.883 10.7973 16.8509 10.7973 15.6491C10.7973 14.8008 10.3784 13.9807 9.40541 13.8111C9.32432 13.7969 8.7027 13.7828 8.62162 13.7828C8.22973 13.7686 8.05405 13.599 8.05405 13.3162V13.2596C8.09459 12.9203 8.31081 12.7506 8.71622 12.7506C8.7973 12.7506 9.41892 12.7365 9.48649 12.7224C10.4324 12.5244 10.8919 11.3933 10.8919 10.545C10.8919 9.6401 10.3649 9.06041 9.41892 9.06041C8.64865 9.06041 7.94595 9.68252 7.86486 10.4743C7.82432 10.8843 7.62162 11.1812 7.27027 11.1812C6.91892 11.1812 6.77027 10.955 6.77027 10.5733C6.89189 9.24422 8.10811 8 9.59459 8Z" fill="#F8F6F0"/>
<path d="M15.0565 18.4515L15.8913 9.28976L14.5739 9.70485C14.5087 9.71968 14.4565 9.7345 14.4043 9.7345C14.1696 9.7345 14 9.57143 14 9.30458C14.013 8.99326 14.1826 8.72642 14.5348 8.62264C16.4783 8.01482 16.5304 8 16.5826 8C16.8043 8 16.9348 8.14825 16.9739 8.2965L17 8.54852C17 8.68194 16.987 8.84501 16.9739 9.05256L16.113 18.3625C16.0739 18.7332 15.8522 19 15.5391 19C15.2391 19 15.0565 18.7776 15.0565 18.4515Z" fill="#F8F6F0"/>
<path d="M9.59459 8C11.1216 8 12 9.06041 12 10.4319C12 11.6195 11.4054 12.482 10.6351 13.1324C11.5135 13.7404 11.8919 14.6311 11.8919 15.5501C11.8919 17.5578 10.3378 19 8.60811 19C7.31081 19 6 18.0668 6 16.7378C6.04054 16.3702 6.27027 16.1722 6.51351 16.1722C6.68919 16.1722 6.90541 16.2995 6.98649 16.5398C7.27027 17.4589 7.86487 17.883 8.62162 17.883C9.86487 17.883 10.7973 16.8509 10.7973 15.6491C10.7973 14.8008 10.3784 13.9807 9.40541 13.8111C9.32432 13.7969 8.7027 13.7828 8.62162 13.7828C8.22973 13.7686 8.05405 13.599 8.05405 13.3162V13.2596C8.09459 12.9203 8.31081 12.7506 8.71622 12.7506C8.7973 12.7506 9.41892 12.7365 9.48649 12.7224C10.4324 12.5244 10.8919 11.3933 10.8919 10.545C10.8919 9.6401 10.3649 9.06041 9.41892 9.06041C8.64865 9.06041 7.94595 9.68252 7.86486 10.4743C7.82432 10.8843 7.62162 11.1812 7.27027 11.1812C6.91892 11.1812 6.77027 10.955 6.77027 10.5733C6.89189 9.24422 8.10811 8 9.59459 8Z" fill="#F8F6F0"/>
</svg>
