<svg width="26" height="26" viewBox="0 0 26 26" fill="none" xmlns="http://www.w3.org/2000/svg">
<path d="M1.42047 6.30369C1.19737 4.55079 2.56331 3 4.33034 3H21.6697C23.4367 3 24.8026 4.5508 24.5795 6.30369L23.5508 14.3869C23.5171 14.6515 23.5197 14.9195 23.5584 15.1835L24.5066 21.6405C24.7667 23.4112 23.3941 25 21.6044 25H4.39558C2.60587 25 1.23332 23.4112 1.49336 21.6405L2.44159 15.1835C2.48035 14.9195 2.48292 14.6515 2.44924 14.3869L1.42047 6.30369Z" stroke="#010101" stroke-linejoin="round"/>
<path d="M9 3V1" stroke="#010101" stroke-linecap="round"/>
<path d="M17 3V1" stroke="#010101" stroke-linecap="round"/>
<path d="M24 5H1.5L3 3H23L24 5Z" fill="#010101"/>
<path d="M16.0565 19.4515L16.8913 10.2898L15.5739 10.7049C15.5087 10.7197 15.4565 10.7345 15.4043 10.7345C15.1696 10.7345 15 10.5714 15 10.3046C15.013 9.99326 15.1826 9.72642 15.5348 9.62264C17.4783 9.01482 17.5304 9 17.5826 9C17.8043 9 17.9348 9.14825 17.9739 9.2965L18 9.54852C18 9.68194 17.987 9.84501 17.9739 10.0526L17.113 19.3625C17.0739 19.7332 16.8522 20 16.5391 20C16.2391 20 16.0565 19.7776 16.0565 19.4515Z" fill="#010101"/>
<path d="M10.5946 9C12.1216 9 13 10.0604 13 11.4319C13 12.6195 12.4054 13.482 11.6351 14.1324C12.5135 14.7404 12.8919 15.6311 12.8919 16.5501C12.8919 18.5578 11.3378 20 9.60811 20C8.31081 20 7 19.0668 7 17.7378C7.04054 17.3702 7.27027 17.1722 7.51351 17.1722C7.68919 17.1722 7.90541 17.2995 7.98649 17.5398C8.27027 18.4589 8.86487 18.883 9.62162 18.883C10.8649 18.883 11.7973 17.8509 11.7973 16.6491C11.7973 15.8008 11.3784 14.9807 10.4054 14.8111C10.3243 14.7969 9.7027 14.7828 9.62162 14.7828C9.22973 14.7686 9.05405 14.599 9.05405 14.3162V14.2596C9.09459 13.9203 9.31081 13.7506 9.71622 13.7506C9.7973 13.7506 10.4189 13.7365 10.4865 13.7224C11.4324 13.5244 11.8919 12.3933 11.8919 11.545C11.8919 10.6401 11.3649 10.0604 10.4189 10.0604C9.64865 10.0604 8.94595 10.6825 8.86486 11.4743C8.82432 11.8843 8.62162 12.1812 8.27027 12.1812C7.91892 12.1812 7.77027 11.955 7.77027 11.5733C7.89189 10.2442 9.10811 9 10.5946 9Z" fill="#010101"/>
</svg>
