<svg width="74" height="76" viewBox="0 0 74 76" fill="none" xmlns="http://www.w3.org/2000/svg">
<path d="M32.6786 34.8756C32.6786 34.8756 28.3983 25.4737 28.3983 14.8959C28.3983 4.31812 29.7358 1.44569 31.3412 1.18414C32.9466 0.922578 34.4192 7.19054 35.3559 14.3728C36.2926 21.555 37.4973 33.4382 37.4973 33.4382C37.4973 33.4382 39.1027 15.9398 40.7081 8.88714C42.3135 1.8345 43.5182 -0.123654 45.2564 0.00594688C46.9946 0.135548 46.5939 3.53109 46.4611 11.7596C46.3283 19.9857 42.8495 33.959 42.8495 33.959C42.8495 33.959 47.3978 21.0296 50.2079 14.7616C53.0179 8.49362 55.816 8.62558 55.9608 10.4518C56.3616 15.5439 49.4039 31.9985 47.7985 36.4403C47.7985 36.4403 57.0303 27.4295 60.6419 25.0778C64.2535 22.7261 66.5276 21.9438 67.8675 23.1197C69.2049 24.2955 54.7561 37.8753 49.0032 40.8797C49.0032 40.8797 56.6295 38.66 64.5239 38.0073C72.4182 37.3545 73.8377 38.7919 73.997 39.8358C74.1564 40.8797 67.8675 43.1017 63.1864 43.8841C58.5053 44.6664 49.4064 44.5368 49.4064 44.5368C49.4064 44.5368 60.3763 46.8884 66.2645 50.9367C72.1502 54.985 71.7495 56.4224 71.0807 57.2047C70.412 57.987 58.5029 54.853 54.4906 52.3717C50.4758 49.8905 46.5963 47.6708 46.5963 47.6708C46.5963 47.6708 55.099 54.4689 58.7419 59.1016C62.3849 63.7342 63.1864 66.477 62.2497 67.6528C61.313 68.8287 56.4967 66.0859 53.2859 63.343C50.0751 60.6002 42.9847 49.8928 42.9847 49.8928C42.9847 49.8928 46.7315 55.8992 47.533 62.4288C48.3345 68.9583 48.0689 74.0504 46.5963 74.9647C45.1236 75.879 42.1808 73.6593 41.1113 65.5627C40.0418 57.4662 39.1051 50.152 39.1051 50.152C39.1051 50.152 38.4026 65.2352 36.4785 70.9494C34.5544 76.6636 31.4329 76.395 31.0539 75.1579C30.6749 73.9208 30.6749 65.8243 31.8795 59.9475C33.0842 54.0707 34.4216 49.4993 34.4216 49.4993C34.4216 49.4993 31.0756 56.2904 27.1961 61.776C23.3165 67.2617 17.2956 71.5715 15.555 69.743C13.8168 67.9144 19.9705 58.774 21.9766 55.7696C23.9828 52.7653 30.5397 47.4116 30.5397 47.4116C30.5397 47.4116 17.4283 57.7278 6.19042 60.6002C-5.04752 63.4726 9.21294 52.8949 15.7964 49.4993C22.3798 46.1038 28.2655 44.4072 28.2655 44.4072C28.2655 44.4072 11.0067 47.15 3.38033 44.1456C-4.24602 41.1412 2.44363 39.4446 9.53403 39.3127C16.6244 39.1831 28.3983 40.6181 28.3983 40.6181C28.3983 40.6181 14.6183 37.2226 10.0676 33.827C5.51928 30.4315 4.85056 26.9064 7.79343 26.7744C10.7363 26.6424 29.603 37.0906 29.603 37.0906C29.603 37.0906 13.1456 23.1173 13.0128 17.1109C12.8801 11.1045 22.6454 22.7261 25.1875 25.7305C27.7296 28.7349 32.681 34.8709 32.681 34.8709L32.6786 34.8756Z" fill="#16E25B"/>
</svg>
