<svg width="22" height="10" viewBox="0 0 22 10" fill="none" xmlns="http://www.w3.org/2000/svg">
<path d="M20.2319 7.46094C19.9455 8.18424 19.548 8.73568 19.0396 9.11523C18.5382 9.49479 17.8579 9.75619 16.9985 9.89941L16.9126 9.22266C17.464 9.12956 17.9045 8.98991 18.2339 8.80371C18.5705 8.62467 18.8283 8.40983 19.0073 8.15918C19.1864 7.90853 19.3475 7.59342 19.4907 7.21387C19.6769 6.7627 19.8452 6.23275 19.9956 5.62402C20.146 5.00814 20.3358 4.11654 20.5649 2.94922H21.3491C21.0985 4.19531 20.8908 5.14062 20.7261 5.78516C20.5685 6.42969 20.4038 6.98828 20.2319 7.46094ZM18.2554 2.94922C18.1479 4.14518 18.1157 5.00098 18.1587 5.5166C18.2017 6.03223 18.3449 6.3903 18.5884 6.59082C18.8319 6.79134 19.2651 6.93815 19.8882 7.03125L19.6841 7.69727C18.8892 7.61849 18.3234 7.41439 17.9868 7.08496C17.6502 6.74837 17.4604 6.2793 17.4175 5.67773C17.3745 5.06901 17.4067 4.15951 17.5142 2.94922H18.2554Z" fill="#656565"/>
<path d="M15.312 4.66797C15.3908 4.25977 15.3765 3.98047 15.269 3.83008C15.1688 3.67253 14.9432 3.59375 14.5923 3.59375C14.3774 3.59375 14.1519 3.6224 13.9155 3.67969C13.6864 3.72982 13.4465 3.80143 13.1958 3.89453L13.0454 3.25C13.6255 3.01367 14.1698 2.89551 14.6782 2.89551C15.244 2.89551 15.6486 3.03516 15.8921 3.31445C16.1427 3.58659 16.2108 4.00911 16.0962 4.58203L15.6021 7.07422L15.5054 7.76172H14.7856L14.8286 7.07422L15.312 4.66797ZM15.3979 5.53809C14.5887 5.53809 13.98 5.63118 13.5718 5.81738C13.1707 6.00358 12.9702 6.26497 12.9702 6.60156C12.9702 6.77344 13.0132 6.90234 13.0991 6.98828C13.1922 7.07422 13.339 7.11719 13.5396 7.11719C13.8117 7.11719 14.0444 7.04915 14.2378 6.91309C14.4383 6.77702 14.689 6.54427 14.9897 6.21484L15.0327 6.17188L15.4302 6.51562C15.423 6.52279 15.4123 6.53353 15.3979 6.54785C15.0542 6.97038 14.7284 7.28548 14.4204 7.49316C14.1125 7.70085 13.7544 7.80469 13.3462 7.80469C12.9451 7.80469 12.6444 7.70085 12.4438 7.49316C12.2505 7.27832 12.1538 7.00619 12.1538 6.67676C12.1538 6.08236 12.4367 5.63835 13.0024 5.34473C13.5682 5.04395 14.3667 4.89355 15.3979 4.89355V5.53809Z" fill="#656565"/>
<path d="M10.1558 7.06348L10.145 6.8916L11.3374 0.886719H12.1108L10.8755 7.07422L10.7573 7.76172H10.1021L10.1558 7.06348ZM9.79053 2.86328C10.2632 2.86328 10.6105 2.99935 10.8325 3.27148C11.0617 3.53646 11.1727 3.91243 11.1655 4.39941L10.8433 4.47461C10.8218 4.13802 10.7251 3.89811 10.5532 3.75488C10.3885 3.60449 10.1665 3.5293 9.88721 3.5293C9.52197 3.5293 9.21761 3.6582 8.97412 3.91602C8.73779 4.16667 8.56234 4.48893 8.44775 4.88281C8.33317 5.26953 8.27588 5.66699 8.27588 6.0752C8.27588 6.33301 8.30452 6.54427 8.36182 6.70898C8.42627 6.86654 8.51937 6.98112 8.64111 7.05273C8.76286 7.12435 8.91683 7.16016 9.10303 7.16016C9.38949 7.16016 9.65446 7.08138 9.89795 6.92383C10.1414 6.75911 10.3384 6.50488 10.4888 6.16113L10.7896 6.36523C10.5962 6.85221 10.3491 7.22103 10.0483 7.47168C9.74756 7.72233 9.3859 7.84766 8.96338 7.84766C8.46208 7.84766 8.0861 7.69369 7.83545 7.38574C7.59196 7.07064 7.47021 6.63379 7.47021 6.0752C7.47021 5.55241 7.55615 5.04753 7.72803 4.56055C7.90706 4.06641 8.17204 3.66178 8.52295 3.34668C8.87386 3.02441 9.29639 2.86328 9.79053 2.86328Z" fill="#656565"/>
<path d="M4.53912 7.88672C3.85892 7.88672 3.40784 7.65113 3.18588 7.17997C2.97108 6.7088 2.94244 6.08995 3.09996 5.32343C3.25032 4.58503 3.51524 3.99431 3.89472 3.55128C4.28136 3.10824 4.80046 2.88672 5.45202 2.88672C6.13222 2.88672 6.5833 3.1223 6.80526 3.59347C7.02722 4.06464 7.05944 4.68348 6.90192 5.45001C6.75156 6.18137 6.47948 6.77209 6.08568 7.22216C5.69904 7.6652 5.18352 7.88672 4.53912 7.88672ZM4.57134 7.21161C4.97946 7.21161 5.30166 7.07097 5.53794 6.78967C5.78138 6.50135 5.97112 6.0126 6.10716 5.32343C6.23604 4.68348 6.2432 4.2299 6.12864 3.96267C6.02124 3.69544 5.78496 3.56182 5.4198 3.56182C5.01884 3.56182 4.70022 3.70599 4.46394 3.99431C4.22766 4.28264 4.03792 4.76787 3.89472 5.45001C3.75868 6.09699 3.74794 6.55409 3.8625 6.82132C3.97706 7.08151 4.21334 7.21161 4.57134 7.21161Z" fill="#656565"/>
<path d="M2.31635 1.58672L1.08311 7.88672H0.310992L1.54424 1.58672H0L0.13941 0.886719H4L3.86059 1.58672H2.31635Z" fill="#656565"/>
</svg>
