<svg width="64" height="64" viewBox="0 0 64 64" fill="none" xmlns="http://www.w3.org/2000/svg">
<path d="M24.1732 23.0209C24.1732 23.0209 21.4761 25.6623 20.0361 25.5864C17.7433 25.4651 16.6064 20.9553 15.4808 18.006C14.3551 15.0567 13.3866 12.1334 10.5064 11.9816C7.62633 11.8297 6.91875 20.9764 5.58271 30.9942C5.09047 34.6881 3.5626 39.8309 3.30396 42.8061C2.86085 47.8994 4.16987 49.7414 6.55018 49.5196C10.3206 49.1688 17.3853 41.1267 19.6527 41.3137C21.9202 41.5006 23.8416 47.0521 24.8258 50.2705C25.3494 51.9824 26.1609 53.9046 28.0461 54.2167C29.9312 54.5289 31.8688 53.5496 35.9013 48.6915C38.0585 46.094 40.091 42.8843 42.369 42.7739C44.6469 42.6636 46.3481 52.8592 47.4999 55.6503C48.6518 58.4414 51.0176 58.8332 52.165 58.2106C53.3124 57.588 56.0095 53.9715 57.5025 45.93C58.9955 37.8885 61.6408 25.8122 62.217 23.3072C62.7932 20.8023 62.2436 17.2983 59.5991 17.673C56.9546 18.0477 49.0207 25.0226 46.926 25.976C44.8313 26.9293 44.1768 25.0332 43.8889 23.8478C43.601 22.6625 40.1193 13.4722 38.8626 11.3138C37.606 9.15542 35.302 8.44885 33.0238 11.4846C30.7457 14.5204 24.1732 23.0209 24.1732 23.0209Z" fill="#617CC1"/>
<path d="M27.7025 18.875C27.0034 20.0997 25.8533 20.7052 24.6877 21.0448C23.1284 21.4987 21.5105 21.6916 19.9289 21.7708C19.5284 21.7913 19.2174 22.3202 19.2436 22.7614C19.2737 23.2691 19.6337 23.5382 20.0337 23.5206C21.7251 23.4386 23.4535 23.2222 25.1138 22.6982C26.5151 22.254 27.9507 21.4684 28.8073 19.9676C29.0381 19.5629 29.0664 19.047 28.7441 18.7303C28.4711 18.4607 27.9329 18.4733 27.7016 18.8809L27.7025 18.875Z" fill="black"/>
<path d="M33.7931 20.7785C35.2902 24.2313 38.3726 26.0509 41.4342 25.3098C42.1909 25.1266 42.1494 23.5104 41.387 23.6926C38.7355 24.3348 36.1064 22.7849 34.7958 19.7633C34.6407 19.4041 34.2459 19.3637 33.9835 19.6288C33.7022 19.913 33.6384 20.4166 33.7935 20.7759L33.7931 20.7785Z" fill="black"/>
<path d="M25.2081 24.1235C24.8659 24.0486 24.4836 24.0841 24.1817 24.3877C23.8555 24.7184 23.6982 25.3215 23.8464 25.7906C23.9441 26.0979 24.1413 26.3307 24.4069 26.3773C24.6167 26.4147 24.8408 26.3296 25.02 26.1565C25.1993 25.9834 25.3328 25.7273 25.378 25.4541C25.4354 25.1074 25.3431 24.8036 25.1601 24.5809C25.0201 24.4095 24.7628 24.3721 24.5758 24.4841C24.1669 24.7284 23.8602 25.1923 23.7664 25.7591C23.6893 26.2247 23.9898 26.719 24.378 26.6117C24.7 26.522 24.9699 26.3275 25.2043 26.0128C25.395 25.7584 25.5369 25.392 25.5749 25.0551C25.6224 24.6366 25.4525 24.2628 25.1221 24.2002C24.7319 24.1278 24.2971 24.3964 24.1008 24.876C23.9153 25.3262 23.9799 25.8933 24.2581 26.1993C24.5363 26.5053 24.9577 26.4971 25.264 26.1787C25.5703 25.8603 25.7261 25.3505 25.6073 24.9071C25.4886 24.4637 25.1237 24.1901 24.7396 24.2487C24.4124 24.2985 24.0972 24.5869 23.961 24.9906C23.8248 25.3944 23.8452 25.8813 24.0398 26.2255C24.245 26.5897 24.6081 26.7538 24.968 26.686C25.3767 26.6107 25.792 26.2323 25.8799 25.6776C25.9551 25.2117 25.7538 24.752 25.4214 24.606C25.107 24.4707 24.7628 24.5151 24.4679 24.7886C24.2876 24.9563 24.1564 25.2102 24.1073 25.4828C24.0454 25.8209 24.152 26.1583 24.345 26.3567C24.6356 26.6595 25.1021 26.5938 25.4078 26.2675C25.6821 25.9749 25.8607 25.5184 25.8289 25.0764C25.7747 24.3031 25.234 23.704 24.6208 23.7819C24.1593 23.8407 23.799 24.3659 23.7925 24.955C23.7861 25.544 24.1291 25.9258 24.5327 26.0368C24.8207 26.1157 25.1652 26.0453 25.454 25.9164C25.8051 25.7587 26.0827 25.3862 26.1699 24.9197C26.218 24.6651 26.1468 24.3647 25.9911 24.2168C25.3451 23.5951 24.3188 23.6435 23.7001 24.5081C23.5455 24.7243 23.4183 25.0256 23.3853 25.3087C23.3391 25.7195 23.4333 26.0835 23.6517 26.3562C23.9461 26.7195 24.4334 26.756 24.8377 26.719C25.2862 26.6789 25.7297 26.4534 26.1184 26.1278C26.3485 25.9345 26.4341 25.525 26.3615 25.2218C26.2569 24.7885 25.9184 24.5479 25.5668 24.6014C25.2578 24.6491 24.9764 25.0678 25.0072 25.4681C25.038 25.8683 25.2993 26.1689 25.6308 26.1172L25.6533 26.1132L25.4944 26.1154C25.5179 26.1167 25.5372 26.1199 25.5599 26.1263L25.4103 26.0729C25.4234 26.0777 25.4375 26.0878 25.4498 26.0977L25.3235 25.9988C25.3358 26.0086 25.3476 26.0209 25.3575 26.033L25.2595 25.8946C25.2694 25.9066 25.2785 25.9237 25.286 25.938L25.2209 25.7686C25.2281 25.7854 25.2333 25.8018 25.2361 25.8205L25.4793 24.9145C25.4379 24.9492 25.3945 24.9837 25.3497 25.0152L25.487 24.9158C25.3364 25.0234 25.1781 25.1064 25.0158 25.1653L25.1672 25.1124C24.9929 25.1719 24.8193 25.203 24.6427 25.2049L24.8016 25.2026C24.6729 25.2021 24.5443 25.1886 24.4204 25.1473L24.5701 25.2007C24.5139 25.181 24.4628 25.1543 24.4111 25.1198L24.5374 25.2187C24.5041 25.1924 24.4736 25.1613 24.4458 25.1255L24.5438 25.2639C24.5233 25.2319 24.5067 25.2006 24.4909 25.1642L24.556 25.3335C24.5467 25.306 24.5393 25.2788 24.5324 25.249L24.56 25.4408C24.5547 25.4009 24.551 25.3639 24.5519 25.3225L24.5396 25.5284C24.5422 25.4768 24.5501 25.4288 24.5643 25.3791L24.5096 25.578C24.5278 25.516 24.549 25.4598 24.5783 25.4022L24.4903 25.5748C24.5252 25.5078 24.565 25.4468 24.6102 25.3893L24.494 25.5286C24.5462 25.4645 24.6026 25.4114 24.6638 25.3644L24.5265 25.4638C24.6143 25.4004 24.7077 25.3509 24.8028 25.3146L24.6514 25.3675C24.7566 25.3304 24.8624 25.3141 24.9679 25.3108L24.809 25.313C24.9161 25.3126 25.0183 25.3295 25.1195 25.3644L24.9698 25.3111C25.0614 25.3444 25.1466 25.3923 25.2277 25.4526L25.1015 25.3537C25.1313 25.3768 25.1588 25.4022 25.1863 25.4275L25.0075 24.7246C25.0042 24.7448 25.0012 24.7626 24.9959 24.7825L25.0507 24.5836C25.0422 24.6108 25.0322 24.6351 25.0218 24.662L25.1098 24.4894C25.0928 24.5204 25.0743 24.5485 25.0534 24.5788L25.1696 24.4395C25.1402 24.4736 25.1116 24.5027 25.0777 24.5282L25.215 24.4288C25.1499 24.4752 25.0829 24.5083 25.0111 24.5354L25.1625 24.4825C25.0453 24.5203 24.9276 24.5372 24.8101 24.5411L24.9689 24.5388C24.8936 24.5394 24.8218 24.5301 24.7506 24.5053L24.9003 24.5587C24.8634 24.5422 24.8288 24.5234 24.7955 24.4971L24.9218 24.596C24.9031 24.5773 24.8864 24.559 24.8681 24.5377L24.966 24.6761C24.9455 24.6441 24.927 24.6125 24.9128 24.5789L24.9778 24.7483C24.964 24.7122 24.9544 24.6742 24.9492 24.6344L24.9768 24.8261C24.9742 24.7945 24.9725 24.7682 24.9737 24.7372L24.9614 24.9431C24.9664 24.9128 24.971 24.8849 24.9761 24.8546L24.9213 25.0535C24.9266 25.0336 24.9354 25.0168 24.9445 24.9975L24.8565 25.1701C24.8703 25.1464 24.8814 25.1275 24.8986 25.1069L24.7825 25.2463C24.7993 25.2282 24.8138 25.2125 24.8317 25.1998L24.6944 25.2993C24.719 25.2825 24.7446 25.2712 24.7703 25.2598L24.6189 25.3128C24.648 25.3046 24.6743 25.3011 24.7025 25.298L24.5437 25.3003C24.597 25.3013 24.6452 25.3093 24.6941 25.3252L24.5444 25.2718C24.5852 25.289 24.6251 25.3112 24.6622 25.3381L24.536 25.2392C24.5918 25.2849 24.6425 25.3375 24.6896 25.3999L24.5917 25.2615C24.63 25.3172 24.6617 25.377 24.6883 25.4438L24.6232 25.2745C24.6408 25.3242 24.6529 25.3704 24.6619 25.4239L24.6342 25.2321C24.6413 25.2853 24.6449 25.3353 24.6419 25.3894L24.6542 25.1834C24.6496 25.2347 24.6421 25.2802 24.6279 25.3299L24.6827 25.1309C24.667 25.1777 24.6498 25.2217 24.6269 25.2647L24.7149 25.0921C24.6955 25.1253 24.6765 25.1559 24.6537 25.186L24.7699 25.0466C24.7475 25.0741 24.7237 25.0987 24.6963 25.1202L24.8337 25.0208C24.8067 25.0397 24.7802 25.0561 24.7507 25.0668L24.9021 25.0139C24.8726 25.0246 24.8444 25.0277 24.8142 25.0305L24.9731 25.0283C24.9499 25.0244 24.9287 25.0209 24.906 25.0146L25.0557 25.0679C25.0407 25.0628 25.0284 25.053 25.0162 25.0432L25.1424 25.1421C25.1302 25.1323 25.1184 25.1199 25.1108 25.1057L25.2087 25.2441L25.1967 25.2213L25.2618 25.3906C25.2546 25.3738 25.2498 25.3548 25.247 25.3362L25.2747 25.5279L25.2735 25.4992L25.2612 25.7051C25.2626 25.6845 25.2636 25.6665 25.2708 25.6469L25.2161 25.8458C25.2214 25.8259 25.2286 25.8063 25.2392 25.7898L25.1512 25.9624C25.1678 25.934 25.1836 25.9106 25.2036 25.8853L25.0874 26.0247C25.109 26.0022 25.1301 25.9823 25.1551 25.9631L25.0178 26.0625C25.0466 26.0439 25.075 26.0278 25.1045 26.0171L24.9531 26.07C24.9884 26.0603 25.0214 26.0527 25.0569 26.0534L24.898 26.0557C24.9336 26.0564 24.9664 26.0618 25.0002 26.0726L24.8506 26.0192C24.8825 26.0297 24.9117 26.0449 24.94 26.0652L24.8138 25.9663C24.8294 25.9793 24.8413 25.9917 24.8561 26.0098L24.7582 25.8714C24.7692 25.8888 24.7786 25.9033 24.7892 25.9233L24.7241 25.7539C24.7324 25.7761 24.7356 25.7922 24.7396 25.8163L24.7119 25.6245C24.7132 25.6403 24.7146 25.6562 24.714 25.6717L24.7263 25.4657C24.7249 25.4863 24.7215 25.5065 24.7162 25.5264L24.771 25.3275C24.7672 25.3503 24.7576 25.3721 24.7485 25.3914L24.8365 25.2188C24.8195 25.2498 24.8033 25.2757 24.7809 25.3032L24.8971 25.1638C24.8752 25.1888 24.8517 25.2109 24.8267 25.2302L24.964 25.1307C24.9215 25.1601 24.8799 25.1844 24.8352 25.203L24.9866 25.1501C24.9318 25.1696 24.8788 25.179 24.8231 25.1802L24.982 25.1779C24.9368 25.1756 24.8924 25.1683 24.8493 25.1533L24.999 25.2067C24.9655 25.1934 24.9348 25.1753 24.9031 25.1518L25.0294 25.2507C25.0014 25.2279 24.9778 25.2032 24.9554 25.1709L25.0533 25.3093C25.0344 25.2802 25.0178 25.2488 25.0035 25.2153L25.0686 25.3846C25.0522 25.3403 25.0415 25.297 25.0336 25.2489L25.0613 25.4406C25.056 25.4007 25.0542 25.364 25.0551 25.3226L25.0428 25.5285C25.045 25.4795 25.0529 25.4314 25.0667 25.3843L25.0119 25.5832C25.0208 25.5535 25.0308 25.5291 25.0431 25.5026L24.9551 25.6752C24.9725 25.6417 24.9911 25.6136 25.0139 25.5835L24.8977 25.7229C24.9145 25.7049 24.931 25.6894 24.9512 25.6746L24.8139 25.774C24.8408 25.7551 24.8669 25.7412 24.8945 25.7302L24.7431 25.7831C24.7722 25.7749 24.7989 25.7689 24.8272 25.7658L24.6683 25.7681C24.7039 25.7688 24.7366 25.7742 24.7705 25.785L24.6208 25.7316C24.6412 25.7402 24.6573 25.7507 24.6753 25.7614L24.5491 25.6625C24.5667 25.6759 24.58 25.6911 24.5949 25.7091L24.4969 25.5707C24.5113 25.5913 24.5223 25.6087 24.5321 25.6337L24.467 25.4644C24.4752 25.4865 24.4815 25.5084 24.4854 25.5324L24.4578 25.3407C24.4598 25.3644 24.4618 25.3881 24.4614 25.4141L24.4737 25.2081C24.4702 25.2413 24.4648 25.2742 24.4574 25.3068L24.5121 25.1079C24.5028 25.1402 24.4901 25.1692 24.475 25.2005L24.563 25.0279C24.5464 25.0564 24.5302 25.0823 24.5102 25.1076L24.6264 24.9683C24.6115 24.9866 24.5955 24.9995 24.5794 25.0125L24.7168 24.913C24.6988 24.9256 24.6837 24.9335 24.6642 24.9433L24.8156 24.8904C24.7966 24.8976 24.7803 24.9001 24.7602 24.902L24.9191 24.8997C24.9056 24.8975 24.894 24.8956 24.8805 24.8933L25.0302 24.9467C25.0079 24.9378 24.9913 24.9299 24.9718 24.9163L25.0981 25.0152C25.0809 24.9993 25.0656 24.9838 25.0512 24.9632L25.1491 25.1016C25.1351 25.0785 25.1246 25.0585 25.1149 25.0335L25.1799 25.2029C25.1706 25.1753 25.1647 25.151 25.1593 25.1241L25.187 25.3158C25.1813 25.2785 25.1814 25.2421 25.1842 25.201L25.1719 25.4069C25.1769 25.3766 25.1811 25.3513 25.1881 25.3212L25.1333 25.5201C25.1386 25.5002 25.1473 25.4835 25.1545 25.4639L25.0665 25.6364C25.0812 25.6077 25.095 25.584 25.1131 25.5584L24.9969 25.6977C25.0217 25.668 25.0479 25.6412 25.0791 25.6203L24.9418 25.7198C24.973 25.6989 25.0033 25.6832 25.0367 25.6731L24.8853 25.726C24.9101 25.7197 24.9345 25.716 24.9608 25.7125L24.8019 25.7148C24.8278 25.7139 24.851 25.7177 24.8761 25.7219L24.4233 24.867C24.4162 24.9334 24.4038 24.9964 24.3876 25.0587L24.4423 24.8598C24.4184 24.9442 24.3876 25.0223 24.3492 25.0991L24.4372 24.9265C24.3972 25.0005 24.3523 25.0684 24.3 25.1326L24.4162 24.9932C24.3625 25.0545 24.3085 25.1054 24.2476 25.1499L24.385 25.0504C24.3311 25.0883 24.2771 25.1158 24.218 25.1372L24.3694 25.0843C24.3528 25.0893 24.3361 25.0944 24.3194 25.0994L24.9311 25.952C24.9386 25.9064 24.9481 25.8612 24.9614 25.8166L24.9067 26.0155C24.9276 25.9488 24.9516 25.8878 24.9814 25.8277L24.8933 26.0003C24.925 25.9406 24.9597 25.8865 24.9998 25.836L24.8836 25.9753C24.9327 25.9184 24.9824 25.8695 25.0385 25.8294L24.9012 25.9288C24.9168 25.9184 24.9343 25.9083 24.9499 25.8979L24.3657 25.8012L24.379 25.8164L24.281 25.678C24.281 25.678 24.2955 25.6986 24.2992 25.7122L24.2341 25.5428C24.2341 25.5428 24.2419 25.5675 24.2436 25.5808L24.216 25.389C24.216 25.389 24.2195 25.4156 24.2193 25.4286L24.2316 25.2226C24.2298 25.2457 24.2269 25.2634 24.2212 25.2859L24.2759 25.087C24.267 25.1167 24.2566 25.1436 24.2443 25.1701L24.3323 24.9975C24.318 25.0238 24.3023 25.0472 24.2827 25.0699L24.3989 24.9306C24.3844 24.9464 24.3703 24.9596 24.3539 24.9751L24.4912 24.8757C24.469 24.8902 24.4491 24.9025 24.4238 24.9113L24.5753 24.8584C24.5629 24.8615 24.5524 24.865 24.5408 24.8631L24.6997 24.8608C24.6823 24.8579 24.6669 24.8554 24.6476 24.8522L24.7973 24.9055C24.7861 24.9011 24.7735 24.8938 24.7631 24.8843L24.8894 24.9832C24.8737 24.9702 24.8604 24.955 24.8475 24.9373L24.9454 25.0757C24.9344 25.0582 24.9239 25.0383 24.9152 25.0187L24.9803 25.188C24.9695 25.1576 24.9625 25.1279 24.9579 25.0959L24.9856 25.2877C24.9833 25.2535 24.9806 25.2219 24.9826 25.1858L24.9703 25.3917C24.9743 25.356 24.9797 25.3231 24.9875 25.288L24.9328 25.4869C24.9438 25.4445 24.9582 25.4053 24.9784 25.3671L24.8904 25.5397C24.907 25.5112 24.9255 25.4831 24.9455 25.4578L24.8293 25.5972C24.8485 25.577 24.8692 25.5596 24.8899 25.5422L24.7526 25.6417C24.7838 25.6208 24.8165 25.6029 24.8507 25.5877L24.6993 25.6406C24.7603 25.6195 24.821 25.6114 24.8829 25.6086L24.724 25.6109C24.8052 25.6114 24.8843 25.6245 24.9625 25.6426C25.2627 25.7079 25.614 25.3814 25.6667 24.9793C25.7216 24.5517 25.5353 24.1933 25.2139 24.1245L25.2081 24.1235Z" fill="black"/>
<path d="M34.2377 25.3291C33.7809 25.3515 33.3166 25.4543 32.9356 25.6988C32.4742 25.9927 32.1792 26.5373 32.2924 27.0733C32.3204 27.2005 32.3499 27.3361 32.4143 27.4529C32.5178 27.647 32.605 27.7649 32.7698 27.9201C33.0143 28.1512 33.3602 28.2411 33.6904 28.2332C33.7572 28.2306 33.8174 28.2161 33.8807 28.1994C33.9497 28.1836 34.009 28.1743 34.0713 28.1465C34.1522 28.1109 34.2582 28.0631 34.3347 28.0023C34.4111 27.9414 34.4936 27.8789 34.5526 27.8015C34.7573 27.5414 34.8781 27.2129 34.8199 26.8848C34.7506 26.484 34.4774 26.112 34.0669 25.9597C33.6564 25.8073 33.1728 25.8171 32.8125 26.0759C32.6924 26.1568 32.5996 26.2639 32.5383 26.3899C32.4843 26.4898 32.4639 26.5954 32.4717 26.7055C32.4597 26.8125 32.4772 26.9161 32.5236 27.0191C32.5797 27.1509 32.665 27.263 32.7796 27.3555C32.939 27.4908 33.1123 27.612 33.304 27.7091C33.4238 27.7698 33.5564 27.8054 33.6871 27.8352C33.7208 27.8407 33.7517 27.8459 33.7854 27.8514C33.8878 27.8602 33.9959 27.8699 34.0962 27.8566C34.6292 27.7924 35.0133 27.4068 35.1198 26.9208C35.1421 26.821 35.14 26.7118 35.1305 26.6122C35.1227 26.5374 35.0955 26.4404 35.0695 26.3707C35.0392 26.2922 34.9968 26.2171 34.9447 26.1486C34.7792 25.9279 34.4997 25.7509 34.2101 25.7221C34.0226 25.7046 33.8544 25.7094 33.6761 25.7752C33.5281 25.8324 33.4242 25.9023 33.3099 26.0004C33.1613 26.131 33.0381 26.2821 32.9648 26.4632C32.9216 26.5677 32.8858 26.6788 32.8646 26.7897C32.8076 27.0988 32.9386 27.4063 33.187 27.6135C33.3342 27.7359 33.4805 27.7928 33.6665 27.8372C33.6862 27.8405 33.7059 27.8437 33.7255 27.847C33.8163 27.8565 33.9159 27.8649 34.0074 27.8528C34.1786 27.8294 34.3458 27.7782 34.4859 27.6816C34.5509 27.6379 34.6249 27.5739 34.6752 27.5142C34.714 27.4716 34.7756 27.3784 34.7985 27.3277C34.8063 27.3154 34.8113 27.3026 34.8163 27.2898C34.8717 27.1465 34.9112 26.9952 34.882 26.8406C34.8666 26.7591 34.8461 26.674 34.8154 26.5982C34.7501 26.4349 34.6408 26.3106 34.5105 26.191C34.4327 26.121 34.3349 26.0667 34.2414 26.0213C34.1428 25.9722 34.0265 25.9421 33.9179 25.9187C33.8092 25.8952 33.6933 25.8978 33.5831 25.9013C33.563 25.9007 33.542 25.9054 33.5243 25.9079C33.4352 25.9231 33.3372 25.9396 33.2544 25.9694C32.9816 26.0658 32.7682 26.2565 32.6381 26.5017C32.6093 26.5541 32.5986 26.6013 32.5801 26.6609C32.5629 26.7125 32.5424 26.7663 32.5332 26.8219C32.5147 26.9332 32.5123 27.0526 32.5341 27.1651C32.5954 27.4747 32.7387 27.7244 32.9822 27.9444C33.002 27.964 33.0251 27.9815 33.0486 27.9962C33.1263 28.0499 33.212 28.1077 33.3012 28.1442C33.4199 28.1938 33.5489 28.2342 33.677 28.2446C33.9104 28.2642 34.0486 28.2489 34.2741 28.1937C34.4004 28.1629 34.5208 28.0984 34.6323 28.0352C34.8677 27.9027 35.0254 27.7001 35.1571 27.4796C35.2197 27.3457 35.243 27.2053 35.2273 27.0557C35.2104 26.914 35.1567 26.7853 35.069 26.6701C35.0244 26.6083 34.9826 26.5469 34.9315 26.4894C34.842 26.3848 34.747 26.2792 34.6367 26.1956C34.3705 25.9909 34.0172 25.8589 33.6728 25.8999C33.3578 25.9375 33.0561 26.0863 32.8634 26.3266C32.7439 26.4729 32.6648 26.6368 32.6369 26.8228C32.6106 26.9817 32.6273 27.0553 32.662 27.1944C32.7029 27.3482 32.7238 27.3789 32.8213 27.5393C32.9231 27.7087 33.1843 27.839 33.3781 27.8711C33.586 27.9055 33.8448 27.8586 34.0122 27.7365C34.1796 27.6145 34.3257 27.4291 34.3524 27.2157L34.3566 26.9986C34.3397 26.857 34.2859 26.7283 34.1982 26.613L34.1892 26.5979L34.2945 26.7814C34.2882 26.7668 34.282 26.7521 34.2757 26.7375L34.3284 26.9422C34.3254 26.9254 34.3248 26.9117 34.3242 26.898L34.32 27.1151C34.3226 27.0992 34.3248 27.0859 34.3274 27.07L34.2614 27.2769C34.2686 27.2508 34.281 27.2284 34.2962 27.2064L34.1804 27.3832C34.1955 27.3613 34.2164 27.3402 34.2367 27.3218L34.0779 27.4616C34.1011 27.4436 34.1243 27.4257 34.1526 27.4113L33.9607 27.5075C33.9923 27.4909 34.0258 27.4802 34.0617 27.4725L33.8463 27.5185C33.8701 27.5143 33.8934 27.5127 33.9196 27.5116L33.6901 27.5035C33.7242 27.5064 33.7547 27.5142 33.7884 27.5198L33.5685 27.4534C33.6121 27.4688 33.6497 27.4859 33.6892 27.5088L33.5001 27.3958C33.5523 27.429 33.5952 27.466 33.6401 27.5088L33.4894 27.3559C33.5631 27.4335 33.6271 27.5176 33.6879 27.6039L33.5997 26.7943C33.5997 26.7943 33.5845 26.8163 33.5767 26.8286L33.6926 26.6518C33.6622 26.6958 33.6238 26.7357 33.5827 26.7752L33.7415 26.6354C33.6979 26.6718 33.6525 26.7023 33.6023 26.7267L33.7942 26.6305C33.744 26.6549 33.6919 26.6735 33.6378 26.6863L33.8532 26.6403C33.8117 26.647 33.7706 26.6511 33.73 26.6525L33.9595 26.6606C33.9165 26.6589 33.8772 26.6524 33.8359 26.6401L34.0558 26.7065C34.0202 26.6952 33.985 26.6812 33.9534 26.6623L34.1425 26.7753C34.1058 26.7529 34.0728 26.7257 34.0407 26.6931L34.1914 26.846C34.1673 26.8175 34.1459 26.7895 34.125 26.7588L34.2303 26.9423C34.2103 26.9063 34.1935 26.8682 34.1828 26.8283L34.2355 27.033C34.2267 26.9989 34.2235 26.9657 34.2236 26.9303L34.2194 27.1474C34.2195 27.112 34.2248 27.0802 34.2361 27.0467L34.1701 27.2536C34.1797 27.2307 34.1888 27.2104 34.2007 27.1906L34.0849 27.3674C34.1001 27.3454 34.1144 27.3288 34.1319 27.3099L33.9731 27.4497C33.9903 27.4334 34.0097 27.4203 34.0316 27.4103L33.8396 27.5065C33.8647 27.4943 33.8922 27.4853 33.9225 27.4767L33.7071 27.5227C33.743 27.515 33.7752 27.5122 33.8098 27.5125L33.5802 27.5044C33.6144 27.5073 33.6485 27.5102 33.6842 27.5216L33.4643 27.4552C33.4971 27.4661 33.5272 27.4765 33.5587 27.4954L33.3696 27.3824C33.3931 27.3972 33.4162 27.4146 33.436 27.4342L33.2853 27.2813C33.2976 27.2942 33.3095 27.3098 33.3185 27.3249L33.2133 27.1414C33.2242 27.1623 33.2324 27.1827 33.2401 27.2058L33.1874 27.001C33.1874 27.001 33.19 27.0205 33.1915 27.0289L33.2617 26.605C33.2595 26.6182 33.2517 26.6305 33.2439 26.6428L33.3597 26.466C33.3597 26.466 33.3417 26.4875 33.3316 26.4967L33.4903 26.357C33.4903 26.357 33.4676 26.3723 33.4551 26.3784L33.647 26.2822C33.647 26.2822 33.6195 26.2912 33.6042 26.2969L33.8196 26.2509C33.7986 26.2556 33.7813 26.2554 33.7608 26.2575L33.9903 26.2655C33.9706 26.2623 33.951 26.259 33.9313 26.2558L34.1512 26.3221C34.1371 26.3198 34.124 26.3122 34.1108 26.3045L34.2999 26.4175C34.2999 26.4175 34.2768 26.4001 34.2669 26.3903L34.4176 26.5432C34.4176 26.5432 34.4057 26.5276 34.401 26.5214L34.5062 26.7049L34.4996 26.6929L34.5485 27.1121C34.5542 27.0776 34.5599 27.0432 34.5712 27.0097L34.5052 27.2165C34.5233 27.1596 34.5498 27.1041 34.5815 27.0522L34.4656 27.229C34.4923 27.1899 34.5209 27.1565 34.5551 27.1241L34.3964 27.2638C34.4167 27.2454 34.439 27.2328 34.4618 27.2175L34.2698 27.3137C34.2884 27.3058 34.307 27.298 34.3284 27.2907L34.113 27.3367C34.134 27.332 34.1517 27.3295 34.1746 27.3306L33.9451 27.3225C33.9676 27.3262 33.9873 27.3295 34.0069 27.3327L33.7871 27.2664C33.8091 27.2728 33.8279 27.2813 33.8462 27.2925L33.6571 27.1795C33.6571 27.1795 33.6774 27.1965 33.6901 27.2068L33.5394 27.0539C33.5394 27.0539 33.5612 27.0793 33.5702 27.0944L33.465 26.9109C33.474 26.926 33.4774 26.9402 33.4832 26.9574L33.4306 26.7527C33.4336 26.7695 33.4365 26.7864 33.4367 26.8027L33.4409 26.5856C33.4413 26.6184 33.4336 26.647 33.4256 26.6784L33.4916 26.4715C33.4802 26.505 33.4642 26.5323 33.4477 26.5623L33.5635 26.3854C33.5451 26.4096 33.5271 26.4311 33.5063 26.4522L33.6651 26.3124C33.6415 26.333 33.6187 26.3483 33.5932 26.3631L33.7852 26.2669C33.7633 26.2769 33.7386 26.2865 33.7144 26.2933L33.9298 26.2473C33.8939 26.255 33.8593 26.2547 33.8247 26.2544L34.0543 26.2625C34.0028 26.2594 33.9583 26.2493 33.9082 26.2383L34.1281 26.3047C34.0624 26.2829 34.0037 26.2541 33.9459 26.2201L34.1349 26.333C34.038 26.2734 33.9513 26.2046 33.8655 26.1305L33.8302 27.4069C33.8496 27.3938 33.8691 27.3807 33.891 27.3707L33.699 27.4669C33.7269 27.4552 33.7544 27.4461 33.7847 27.4375L33.5693 27.4835C33.6052 27.4758 33.6402 27.4735 33.6776 27.4742L33.4481 27.4662C33.4911 27.4678 33.5332 27.4748 33.5744 27.4871L33.3546 27.4207C33.3902 27.4321 33.4226 27.4456 33.4541 27.4644L33.2651 27.3515C33.2966 27.3703 33.3248 27.3913 33.3494 27.4172L33.1987 27.2642C33.2181 27.2865 33.2375 27.3088 33.2532 27.3359L33.148 27.1524C33.1609 27.179 33.1709 27.2052 33.181 27.2314L33.1284 27.0266C33.1372 27.0608 33.1403 27.094 33.1379 27.1262L33.1421 26.9091C33.1392 26.944 33.1339 26.9758 33.1254 27.0098L33.1914 26.8029C33.1792 26.8418 33.1618 26.877 33.1416 26.9118L33.2575 26.7349C33.2382 26.7644 33.2169 26.7881 33.1896 26.8135L33.3484 26.6738C33.3215 26.6966 33.2951 26.7167 33.2635 26.7332L33.4555 26.6371C33.4276 26.6488 33.4029 26.6583 33.3726 26.6669L33.588 26.6209C33.5554 26.6264 33.5232 26.6292 33.4886 26.6289L33.7181 26.637C33.6868 26.6345 33.6563 26.6267 33.6254 26.6216L33.8453 26.688C33.8153 26.6776 33.7857 26.6645 33.7594 26.6493L33.9484 26.7622C33.9117 26.7398 33.8787 26.7126 33.8494 26.6805L34.0002 26.8334C33.9661 26.7951 33.9353 26.7546 33.9105 26.7124L34.0158 26.8959C33.9867 26.8448 33.9665 26.7925 33.9528 26.7357L34.0055 26.9405C33.9918 26.8838 33.9865 26.8284 33.9873 26.7714L33.9831 26.9885C33.9858 26.9372 33.9937 26.8895 34.0077 26.8401L33.9417 27.047C33.9539 27.0082 33.9708 26.9756 33.9938 26.9413L33.878 27.1181C33.9157 27.0645 33.9582 27.017 34.0063 26.9705L33.8475 27.1103C33.9077 27.0604 33.9727 27.0167 34.0424 26.9792L33.8504 27.0754C33.9606 27.0202 34.0793 26.9826 34.1991 26.9562L33.9837 27.0022C34.1362 26.9703 34.2893 26.9521 34.4462 26.9454C34.6555 26.9365 34.8808 26.8132 35.0095 26.663C35.1383 26.5128 35.231 26.2668 35.1952 26.0648C35.1593 25.8629 35.0669 25.6543 34.8861 25.5263C34.6982 25.389 34.4863 25.3267 34.2504 25.3394L34.2377 25.3291Z" fill="black"/>
<path d="M24.3842 32.2899C24.3921 32.242 24.4688 31.9743 24.445 32.0311C24.4576 31.9985 24.5133 31.8141 24.5156 31.8867C24.5142 31.8952 24.4175 31.9369 24.4058 31.9206C24.4144 31.9336 24.6 31.9845 24.6231 31.997C25.1784 32.3115 25.621 32.8068 26.1359 33.1695C26.8026 33.6355 27.6421 34.208 28.471 33.7383C28.8118 33.5462 28.9703 33.1967 29.1545 32.9092C29.3386 32.6218 29.5144 32.3416 29.6941 32.0592L28.3057 32.4363L30.0115 33.2679C30.6299 33.5697 31.2865 33.9878 32.0145 33.8019C32.2884 33.7317 32.5141 33.5841 32.6876 33.4047C32.7743 33.315 32.8414 33.2134 32.9081 33.1146C32.9218 33.0966 33.0076 32.8825 32.971 32.9949C32.9941 32.9207 33.0501 32.8866 33.1715 32.9125C33.026 32.8798 33.2046 32.9729 33.1935 32.9537C33.6891 33.7584 34.9873 33.6872 35.219 32.8527C35.2439 32.7672 35.2658 32.6783 35.2908 32.5929C35.4152 32.1452 34.9129 31.6632 34.3812 31.5752C33.7726 31.4744 33.3166 31.7977 33.1922 32.2454C33.1672 32.3308 33.1453 32.4197 33.1204 32.5052L35.1459 32.4041C34.4185 31.22 32.5791 30.7825 31.4524 31.7058C31.2652 31.8598 31.1043 32.0499 31.0055 32.2561C30.9472 32.3476 30.9419 32.3583 30.9859 32.2876C31.6631 32.2783 31.8603 32.2156 31.5781 32.0966C31.4408 31.9929 31.219 31.9215 31.0595 31.8431L29.1345 30.9029C28.6059 30.6448 27.9841 30.906 27.7461 31.28C27.605 31.5023 27.464 31.7246 27.3195 31.9464C27.2558 32.0486 27.1892 32.1474 27.1256 32.2495C27.1011 32.2888 26.8778 32.5525 26.9887 32.4465L27.4168 32.2053L27.4874 32.191L28.0471 32.2836C28.2063 32.3418 27.8698 32.182 27.8246 32.1514C27.6688 32.0505 27.5205 31.9479 27.3692 31.8419C27.1152 31.6611 26.8661 31.4724 26.629 31.2771C26.1199 30.8575 25.6337 30.4735 24.9344 30.2912C24.2901 30.1238 23.6102 30.1933 23.1098 30.5238C22.6095 30.8543 22.3961 31.4057 22.2856 31.9423C22.0603 33.0207 24.1589 33.3682 24.3842 32.2899Z" fill="black"/>
</svg>
