<svg width="64" height="64" viewBox="0 0 64 64" fill="none" xmlns="http://www.w3.org/2000/svg">
<path d="M39.4577 7.11371C39.4577 7.11371 26.05 2.35786 18.9317 7.11371C11.8134 11.8696 23.6435 17.1897 23.6435 17.1897C23.6435 17.1897 4.54118 19.8906 7.26608 27.4858C10.3967 36.206 25.8052 29.2603 25.8052 29.2603C25.8052 29.2603 7.26608 34.5841 9.71464 40.2627C12.3941 46.4737 31.0521 38.1332 31.0521 38.1332C31.0521 38.1332 17.4976 42.8819 18.4595 46.2962C19.8587 51.265 25.6513 50.5729 31.4019 48.0708C36.299 45.9413 45.3797 43.5208 51.3332 37.1004C57.2867 30.68 54.8381 20.0326 52.0398 16.1285C49.2414 12.2245 39.4577 7.11371 39.4577 7.11371Z" fill="#EBBB63"/>
<path d="M45.7949 10.1257C45.7949 10.1257 32.7548 5.34283 25.8316 10.1257C18.9083 14.9086 31.1558 18.8349 31.1558 18.8349C31.1558 18.8349 10.08 20.0592 9.04232 28.1152C8.00469 36.1711 26.3929 31.6845 26.3929 31.6845C26.3929 31.6845 13.8052 35.2538 15.1661 39.8939C17.078 46.4115 31.1558 40.9647 31.1558 40.9647C31.1558 40.9647 22.0689 42.2925 23.331 45.6049C24.6919 49.1742 28.5328 49.7203 34.5579 48.8173C36.9393 48.4603 38.8513 46.5864 38.6404 46.6757C36.9393 47.3895 36.5991 48.4603 33.197 49.8881C28.9853 51.6549 30.8224 55.4919 32.8568 56.3129C37.2795 58.0975 42.7093 55.8738 43.4033 55.599C48.224 53.693 55.6099 50.2271 60.0734 45.2479C65.8638 38.791 62.1147 24.1889 57.0116 17.4072C54.1436 13.5951 45.7949 10.1257 45.7949 10.1257Z" fill="#FFE7B6"/>
<path d="M7.11565 12.9666C7.2941 13.1738 7.45943 13.3874 7.60901 13.6074C7.7481 13.8104 7.90293 14.024 7.99477 14.244C7.92654 14.0774 8.01052 14.2782 8.02627 14.3102C8.05513 14.37 8.08137 14.4277 8.10762 14.4875C8.15485 14.5922 8.19684 14.6969 8.23621 14.8015C8.32805 15.0429 8.40153 15.2886 8.46189 15.5364L9.89998 15.0429C9.8475 14.966 9.79764 14.8891 9.74515 14.8122C9.54833 14.5174 9.01823 14.3978 8.66921 14.5815C8.32018 14.7652 8.17585 15.1433 8.38579 15.4573C8.43827 15.5342 8.48813 15.6111 8.54062 15.688C8.72957 15.9679 9.17569 16.0704 9.52471 15.9508C9.89998 15.8226 10.0574 15.5129 9.98133 15.1946C9.73203 14.1692 9.21243 13.1759 8.47239 12.3193C8.23621 12.0459 7.77171 11.8921 7.39645 12.0886C7.06317 12.2638 6.8611 12.6718 7.11303 12.9645L7.11565 12.9666Z" fill="#010101"/>
<path d="M2.43568 16.5439C3.52215 17.3254 4.60861 18.107 5.69216 18.8885L6.13199 17.3448C6.06209 17.3448 6.07083 17.3475 6.1553 17.3558C6.2252 17.3558 6.28928 17.3779 6.34754 17.4138L6.44657 17.4939C6.38249 17.4331 6.39997 17.4552 6.49609 17.5574C6.25724 17.1873 5.70382 17.0134 5.30185 17.2591C4.89989 17.5049 4.73386 17.9965 4.98727 18.3914C5.22903 18.7642 5.66012 19.0183 6.13199 18.999C6.50192 18.9852 6.8864 18.7532 6.97378 18.3914C7.00874 18.245 7.00874 18.0959 6.97378 17.9495C6.92135 17.7286 6.75241 17.585 6.57182 17.4552C5.48536 16.6737 4.39889 15.8921 3.31534 15.1106C3.1464 14.9891 2.83473 14.978 2.64249 15.0277C2.4386 15.0802 2.22014 15.2293 2.1211 15.4089C2.01333 15.6022 1.9609 15.8341 2.03372 16.0468C2.10654 16.2594 2.24344 16.403 2.43568 16.5411V16.5439Z" fill="#010101"/>
<path d="M1.61888 22.5894C2.83301 22.6053 4.07186 22.7351 5.22208 22.9709L5.38699 21.4106C5.26537 21.4106 5.14581 21.4106 5.0242 21.4106C4.70057 21.4106 4.39137 21.7762 4.4058 22.2053C4.42023 22.6344 4.67789 23 5.0242 23C5.14581 23 5.26537 23 5.38699 23C5.69619 23 5.95385 22.698 5.99508 22.3113C6.03218 21.9563 5.85697 21.5034 5.5519 21.4398C4.2512 21.1722 2.93813 21.0186 1.61888 21.0001C1.29526 20.9948 0.986057 21.3683 1.00049 21.7947C1.01492 22.2212 1.27258 22.5841 1.61888 22.5894Z" fill="#010101"/>
<path d="M14.77 50.0958C13.9244 50.5511 13.0651 50.9804 12.1894 51.3837C11.7666 51.5788 11.341 51.7661 10.9128 51.9483C10.7 52.0393 10.4845 52.1278 10.269 52.2163C10.1762 52.2527 10.1108 52.2813 10.0016 52.3229C9.93891 52.3464 9.87889 52.3724 9.81615 52.3958C9.69067 52.4296 9.6934 52.4426 9.82434 52.4374L10.6127 53.4261L10.6236 53.3975L10.4136 53.7409L10.449 53.7097L10.0889 53.9101L10.1353 53.8996C10.569 53.8138 10.8173 53.3272 10.7082 52.9396C10.5854 52.5103 10.1353 52.3099 9.70158 52.3932C9.35241 52.4608 9.156 52.708 9.03597 53.0072C8.94595 53.2336 9.03597 53.5068 9.18328 53.6889C9.35514 53.8996 9.557 53.9621 9.82706 53.9959C10.0971 54.0297 10.3945 53.845 10.6263 53.7539C10.9073 53.6421 11.1883 53.5276 11.4693 53.4105C11.9303 53.218 12.3858 53.0202 12.8387 52.8147C13.7743 52.388 14.6964 51.9301 15.5993 51.4461C15.9839 51.2406 16.1121 50.7384 15.8939 50.3794C15.6757 50.0203 15.1601 49.8928 14.7755 50.0984L14.77 50.0958Z" fill="#010101"/>
<path d="M16.242 53.2481C15.4798 54.0083 14.6214 54.7001 13.6772 55.3066L13.8866 55.1727C13.763 55.2525 13.636 55.3322 13.5089 55.409C13.2858 55.5457 13.1106 55.6909 13.0351 55.9187C12.9664 56.1237 12.9973 56.3941 13.1381 56.5763C13.2789 56.7585 13.4918 56.918 13.7527 56.9692C14.0137 57.0205 14.3261 57.0176 14.5459 56.8838C15.7098 56.1777 16.7742 55.3777 17.6978 54.4581C17.8764 54.2788 18 54.0937 18 53.8546C18 53.6439 17.8867 53.3962 17.6978 53.251C17.509 53.1058 17.2446 52.9919 16.9699 53.0005C16.7124 53.009 16.4137 53.0802 16.242 53.251V53.2481Z" fill="#010101"/>
<path d="M20.7 54.5697C20.6223 54.9729 20.5269 55.3735 20.416 55.7662C20.3672 55.9379 20.3162 56.1096 20.2607 56.2786C20.2297 56.3749 20.1964 56.4711 20.1631 56.5674C20.132 56.6532 20.1298 56.6636 20.1542 56.596C20.1365 56.6428 20.1187 56.6922 20.101 56.739C19.8237 57.4725 19.4842 58.1748 19.0938 58.8329C18.8941 59.1685 19.0316 59.7147 19.3334 59.8994C19.6728 60.11 20.0322 59.9774 20.243 59.6184C21.066 58.2243 21.6606 56.635 21.9823 54.9807C22.06 54.5827 21.878 54.1171 21.5164 54.0209C21.177 53.9299 20.7799 54.1406 20.6978 54.5671L20.7 54.5697Z" fill="#010101"/>
<path d="M28.248 20.0008C25.3434 20.4133 22.4648 21.0235 19.6416 21.8485C18.2186 22.2644 16.8053 22.7314 15.4149 23.2564C14.184 23.7201 12.9238 24.1837 11.7581 24.8144C10.8528 25.3053 9.9606 25.9701 9.43959 26.911C8.91858 27.8519 8.873 29.0757 9.2377 30.1325C9.99642 32.311 12.0642 33.4803 14.0473 34.1859C17.0626 35.2564 20.3352 35.4064 23.4287 34.6325L23.1682 33.6473C21.5009 34.1859 19.8402 34.82 18.3195 35.7234C16.7988 36.6268 15.2521 37.8746 15.0828 39.7564C14.9134 41.6382 16.3527 43.3086 17.9906 43.9189C19.7458 44.5734 21.7321 44.4166 23.5394 44.1336C26.5026 43.67 29.3258 42.6064 32.123 41.5257L31.8625 40.5405C30.3678 41.1541 28.7234 41.3314 27.1832 41.7916C25.6429 42.2518 23.8845 42.9405 23.0346 44.4711C22.6178 45.2211 22.3736 46.2677 22.7351 47.0791C23.1323 47.9654 23.8617 48.6439 24.6921 49.0666C26.5156 49.9938 28.6648 50.0143 30.6479 50.0041C32.0546 49.9973 33.432 49.97 34.8127 49.6598C36.6102 49.2575 38.3295 48.5586 40.0358 47.8598C40.5275 47.6586 40.4917 46.8643 39.9055 46.8541C39.3813 46.8473 38.0755 46.8507 37.9843 47.6314C37.8508 48.7734 39.6385 48.0268 40.0358 47.8598C40.6154 47.6143 40.4038 46.7586 39.7753 46.8745C37.9127 47.2189 36.0436 47.6791 34.2787 48.4052C32.9208 48.9609 31.3252 49.7007 30.7456 51.2075C30.0911 52.9052 30.6707 54.5313 32.022 55.6256C32.6277 56.1166 33.3246 56.4847 34.0572 56.7234C34.8908 56.9961 35.7407 57.0029 36.6069 56.9995C40.534 56.9791 44.4383 56.1916 48.0137 54.4632C50.3778 53.3177 52.4781 51.7563 54.5166 50.0757C57.4538 47.6518 59.7397 44.3518 61.4395 40.8814C61.6218 40.5098 61.7944 40.1314 61.954 39.7496C62.2047 39.153 61.3613 38.6314 61.1106 39.2348C60.3942 40.9496 59.4531 42.5689 58.4371 44.103C57.3626 45.7291 56.1577 47.3143 54.7185 48.6064C53.0122 50.1336 51.1496 51.5518 49.1893 52.6938C46.2358 54.4154 42.9534 55.4552 39.5929 55.8166C38.5053 55.9325 37.4145 55.9836 36.3204 55.9802C35.5421 55.9768 34.8485 55.9427 34.1126 55.67C32.9468 55.2404 31.5596 54.2757 31.4294 52.8643C31.2666 51.0609 32.8426 50.1404 34.2005 49.537C36.0533 48.7154 38.0592 48.2314 40.0358 47.8632L39.7753 46.8779C39.4692 47.0075 39.1599 47.1302 38.8407 47.2086C38.7789 47.2223 38.6877 47.2223 38.6356 47.2461C38.5705 47.2461 38.5737 47.2461 38.6519 47.2564C38.9742 47.6109 39.0296 47.87 38.8147 48.0336C38.7463 48.0234 38.8928 48.0098 38.8472 48.02C38.9384 47.9995 39.0231 47.962 39.1143 47.9416C39.3748 47.8836 39.6385 47.8802 39.9055 47.8836L39.7753 46.8779C38.3751 47.4507 36.9684 48.02 35.5128 48.4325C34.22 48.7973 32.9403 48.9677 31.602 48.9779C29.7752 48.9916 27.88 49.07 26.1053 48.5416C25.3173 48.3064 24.5456 47.9314 23.9985 47.27C23.7673 46.987 23.5198 46.6257 23.5361 46.2473C23.5491 45.8995 23.6175 45.545 23.7575 45.228C24.3632 43.837 25.9751 43.2371 27.2744 42.8348C28.8667 42.3439 30.573 42.17 32.1197 41.5359C32.6961 41.3007 32.4551 40.3189 31.8592 40.5507C29.3877 41.5018 26.9064 42.4461 24.3144 42.9711C22.6992 43.2984 20.9734 43.5268 19.3387 43.2336C17.8181 42.9643 16.3071 42.0916 16.0629 40.3462C15.8415 38.7575 17.3068 37.5712 18.4433 36.8416C19.9835 35.853 21.7028 35.1984 23.4221 34.6428C24.0213 34.4484 23.7771 33.5041 23.1616 33.6575C20.5436 34.3087 17.792 34.2575 15.2032 33.5007C13.4253 32.9825 11.3543 32.1575 10.4002 30.3746C9.94106 29.5189 9.76848 28.4212 10.2276 27.528C10.6868 26.6348 11.4878 26.1132 12.2954 25.6803C13.3927 25.0939 14.5813 24.661 15.7405 24.2246C17.0137 23.7473 18.3 23.3178 19.5993 22.9292C22.5169 22.0633 25.4932 21.4223 28.4987 20.9962C28.7625 20.9587 28.8992 20.6076 28.8406 20.3655C28.7657 20.0689 28.4987 19.9701 28.2382 20.0076L28.248 20.0008Z" fill="#010101"/>
</svg>
