<svg width="64" height="64" viewBox="0 0 64 64" fill="none" xmlns="http://www.w3.org/2000/svg">
<path d="M15.4249 28.7076C6.7319 28.9467 4.9296 35.0402 5.26425 36.3699C5.59891 37.6997 8.77209 40.0187 7.98585 40.8416C7.19961 41.6687 3.05472 41.7903 2.30074 45.6458C1.55079 49.5054 8.62693 49.8094 8.93337 51.4838C9.2398 53.1582 4.66349 53.7258 8.71967 56.4785C12.7759 59.2273 24.0412 59.43 29.1982 58.4975L34.3551 57.5651L31.5609 29.4049C31.5609 29.4049 24.1138 28.4684 15.4208 28.7076H15.4249Z" fill="#FFA480"/>
<path d="M59.6863 48.6173C56.876 46.3388 60.4765 44.8915 61.5006 41.1333C62.5248 37.3751 54.5051 36.5521 52.4609 35.2953C50.4207 34.0385 55.7833 30.256 47.5177 28.1762C39.2521 26.0964 30.3535 29.5668 30.3535 29.5668L33.2324 57.3459C43.9171 59.1865 52.5416 58.6918 58.4686 56.2066C63.4521 54.1147 62.4925 50.8957 59.6822 48.6173H59.6863Z" fill="#FFA480"/>
<path d="M16.8336 16.7271C11.6646 19.5326 12.5033 23.9962 13.1282 24.7503C13.7532 25.5044 16.4022 26.0233 16.1885 26.7936C15.9748 27.5639 13.5113 28.9058 14.2814 31.614C15.0515 34.3222 19.4181 32.3599 20.1358 33.341C20.8495 34.3222 18.269 36.0857 21.5914 36.6128C24.9097 37.1438 31.7762 33.8357 34.5945 31.6626L37.4129 29.4896L26.7967 12.2554C26.7967 12.2554 22.0026 13.9257 16.8336 16.7312V16.7271Z" fill="#A9DEA5"/>
<path d="M48.3977 16.8661C45.9785 16.258 47.6921 14.2309 47.1236 11.5065C46.5551 8.78212 41.4466 10.6957 39.8176 10.5132C38.1887 10.3268 40.2249 6.26448 34.5761 7.4483C28.9272 8.63211 24.6533 13.5782 24.6533 13.5782L35.197 30.5448C42.2288 28.4691 47.2809 25.5217 50.071 22.1162C52.4176 19.254 50.8169 17.4783 48.3977 16.8702V16.8661Z" fill="#A9DEA5"/>
<g clip-path="url(#clip0_6661_6143)">
<path d="M25.0606 16.7962C24.8894 17.5584 25.0858 18.3753 25.5895 18.9346L25.7405 19.0607C25.8262 19.121 25.9219 19.1539 26.0226 19.1594C26.0881 19.1813 26.1586 19.1813 26.2241 19.1594C26.3248 19.1594 26.4205 19.121 26.5061 19.0607C26.6169 18.9839 26.7076 18.8852 26.7781 18.7646C26.8335 18.6714 26.8637 18.5672 26.8688 18.4576C26.8889 18.3479 26.8889 18.2382 26.8536 18.1286C26.7982 17.9531 26.7428 17.7832 26.6874 17.6077C26.622 17.4048 26.5162 17.2294 26.3399 17.1142C26.1787 17.0101 25.937 16.9662 25.7557 17.032C25.5743 17.0978 25.3981 17.2184 25.3024 17.4103C25.2067 17.6022 25.1613 17.8325 25.2268 18.0463C25.2822 18.2218 25.3376 18.3918 25.393 18.5672L26.6572 17.7667C26.622 17.7283 26.5917 17.6845 26.5565 17.6461L26.6723 17.8106C26.6018 17.7119 26.5464 17.6077 26.5011 17.4926L26.5766 17.6899C26.5313 17.5693 26.5011 17.4432 26.4809 17.3171L26.5061 17.5364C26.491 17.4103 26.491 17.2787 26.5061 17.1526L26.4809 17.3719C26.486 17.3226 26.496 17.2787 26.5061 17.2294C26.5514 17.021 26.5313 16.7853 26.4306 16.5934C26.3399 16.4234 26.1586 16.2589 25.9773 16.215C25.7859 16.1657 25.5693 16.1767 25.393 16.2973C25.2167 16.4179 25.0908 16.5769 25.0455 16.7908H25.0606V16.7962Z" fill="black"/>
<path d="M31.7492 14.8227C31.714 15.1407 31.7391 15.4423 31.7794 15.7603C31.8197 16.0509 31.9003 16.3141 32.0162 16.5772C32.0615 16.6704 32.127 16.7527 32.2126 16.8075C32.2831 16.8788 32.3687 16.9281 32.4694 16.9556L32.6709 16.983C32.7767 16.983 32.8724 16.961 32.963 16.9117C33.1091 16.8459 33.2501 16.7308 33.3257 16.5772L33.4012 16.3799C33.4365 16.2318 33.4365 16.0893 33.4012 15.9412C33.376 15.7658 33.3458 15.5958 33.3206 15.4203C33.2955 15.3107 33.2501 15.2175 33.1847 15.1407C33.1292 15.053 33.0587 14.9817 32.9731 14.9269C32.8119 14.8227 32.5702 14.7788 32.3889 14.8446C32.2075 14.9104 32.0313 15.0311 31.9356 15.223L31.86 15.4203C31.8248 15.5684 31.8248 15.7109 31.86 15.859C31.8852 16.0344 31.9154 16.2044 31.9406 16.3799L33.3206 15.7438C33.3206 15.7438 33.3005 15.7 33.2904 15.6726L33.366 15.8699C33.2955 15.6945 33.2552 15.5081 33.235 15.3162L33.2602 15.5355C33.23 15.2997 33.23 15.0585 33.2602 14.8172C33.2602 14.7021 33.2401 14.5979 33.1947 14.4992C33.1645 14.395 33.1141 14.3073 33.0386 14.236C32.9076 14.099 32.6961 13.9893 32.5047 14.0003C32.3133 14.0112 32.1068 14.077 31.9708 14.2415L31.855 14.406C31.7845 14.5321 31.7542 14.6747 31.7542 14.8227H31.7492Z" fill="black"/>
<path d="M31.2653 21.4347C29.9255 21.5718 29.0542 22.9644 29.306 24.3845C29.5578 25.8046 30.7415 26.6764 31.9402 26.8957C33.1389 27.115 34.7053 27.0657 35.5162 25.9855C36.3825 24.8286 36.0098 23.1289 35.0075 22.2242C33.8742 21.1989 32.2776 20.8151 30.8321 20.9851C30.4393 21.029 30.0565 21.3305 30.0766 21.8075C30.0917 22.2133 30.409 22.6793 30.8321 22.63C31.2955 22.5752 31.8294 22.5752 32.2323 22.6519C32.4741 22.7013 32.7108 22.7616 32.9425 22.8438C33.0432 22.8822 33.1439 22.9206 33.2447 22.959C33.3857 23.0193 33.3051 22.9864 33.2749 22.9699C33.3454 23.0028 33.4159 23.0412 33.4814 23.0796C33.572 23.1289 33.6627 23.1838 33.7483 23.2441C33.7937 23.2715 33.8339 23.3044 33.8742 23.3373C33.8893 23.3482 33.9901 23.4305 33.9045 23.3592C33.975 23.4195 34.0404 23.4853 34.1009 23.5511C34.1361 23.5895 34.1714 23.6279 34.2067 23.6717C34.2318 23.7046 34.3124 23.8198 34.252 23.732C34.3074 23.8198 34.3578 23.913 34.4031 24.0117C34.3527 23.902 34.4031 24.0117 34.4132 24.0391C34.4283 24.0884 34.4434 24.1433 34.4585 24.1926C34.4736 24.242 34.4837 24.2968 34.4887 24.3516C34.4837 24.3132 34.4837 24.2091 34.4887 24.3735C34.4887 24.4284 34.4887 24.4777 34.4887 24.5326C34.4887 24.6806 34.5038 24.5051 34.4887 24.5874C34.4786 24.6367 34.4686 24.6916 34.4535 24.7409C34.4484 24.7628 34.393 24.9109 34.4283 24.8231C34.4635 24.7354 34.393 24.8835 34.3829 24.8999C34.3225 25.0096 34.4484 24.8231 34.3678 24.9218C34.3426 24.9547 34.1815 25.0973 34.2721 25.0315C34.2318 25.0589 34.1915 25.0918 34.1462 25.1137C34.1361 25.1137 33.9347 25.2124 34.0556 25.1631C33.8642 25.2398 33.6677 25.2892 33.4663 25.3166C33.5872 25.3002 33.3555 25.3221 33.3202 25.3276C33.1893 25.3385 33.0533 25.344 32.9223 25.344C32.464 25.344 32.0711 25.3056 31.6682 25.1137C31.6279 25.0918 31.507 25.0205 31.4365 24.9767C31.3962 24.9493 31.3559 24.9164 31.3106 24.8889C31.2099 24.8122 31.3811 24.9547 31.2854 24.8725C31.2199 24.8122 31.1545 24.7464 31.094 24.6806C31.0588 24.6422 31.0285 24.6038 30.9933 24.56C31.0789 24.6641 30.9429 24.4777 30.9379 24.4722C30.9127 24.4284 30.8875 24.3845 30.8623 24.3352C30.8523 24.3187 30.7767 24.1378 30.8069 24.22C30.8371 24.3023 30.7918 24.1542 30.7817 24.1323C30.7666 24.072 30.7515 24.0062 30.7415 23.9404C30.7666 24.0775 30.7415 23.9568 30.7415 23.9239C30.7415 23.8636 30.7415 23.7978 30.7415 23.7375C30.7163 23.8582 30.7465 23.6114 30.7415 23.7375C30.7566 23.6772 30.7717 23.6169 30.7868 23.5566C30.8271 23.4086 30.8069 23.5127 30.7868 23.5456C30.817 23.4798 30.8523 23.414 30.8875 23.3482C30.9026 23.3208 30.9782 23.2331 30.8926 23.3373C30.9328 23.2934 30.9681 23.2496 31.0134 23.2057C31.0739 23.1399 31.0034 23.2057 30.9933 23.2167C31.0487 23.1728 31.1041 23.1399 31.1645 23.1015C31.0336 23.1344 31.1343 23.1234 31.1645 23.1015C31.2048 23.0905 31.3912 23.0631 31.23 23.0796C31.6229 23.0412 32.0056 22.7287 31.9855 22.2571C31.9704 21.8459 31.6531 21.3908 31.23 21.4347H31.2653Z" fill="black"/>
</g>
<defs>
<clipPath id="clip0_6661_6143">
<rect width="11" height="13" fill="white" transform="translate(25 14)"/>
</clipPath>
</defs>
</svg>
