<svg width="64" height="64" viewBox="0 0 64 64" fill="none" xmlns="http://www.w3.org/2000/svg">
<g clip-path="url(#clip0_6661_7128)">
<path d="M4.2497 3.43352C4.2497 3.43352 6.73846 3.01492 13.3761 3.01492C20.0137 3.01492 23.7469 1.34337 24.1626 5.10225C24.5784 8.86113 24.9913 15.1259 24.9913 17.2161C24.9913 19.3034 24.9913 21.3936 21.2581 21.8122C17.3143 22.2534 9.89576 22.1827 4.66543 22.6465C2.5334 22.836 1.34801 20.975 1.34801 16.3817C1.34801 13.7004 0.932282 11.7856 0.617675 7.53181C0.443518 5.17579 2.52217 3.43352 4.2497 3.43352Z" fill="#D3D6EA"/>
<path d="M30.3878 3.018C30.3878 3.018 31.2165 2.5994 37.8541 2.5994C44.4917 2.5994 51.1294 1.34644 51.5451 5.10532C51.9608 8.8642 51.9608 15.129 51.9608 17.2192C51.9608 19.3065 52.3766 21.3966 48.6434 21.8152C44.6996 22.2565 40.3457 22.2338 34.1238 22.2338C32.8794 22.2338 28.3148 22.6524 28.3148 18.0564C28.3148 15.3751 28.3148 11.7916 28.0002 7.53488C27.826 5.17886 28.6603 3.018 30.3878 3.018Z" fill="#D3D6EA"/>
<path d="M32.4609 24.3184H43.6604C50.312 24.3184 51.5424 24.3184 51.9581 28.0772C52.3738 31.8361 52.7868 36.4322 52.7868 38.5195C52.7868 40.6068 51.9581 42.697 48.2222 43.1156C44.2783 43.5568 38.1042 42.6517 32.8738 43.1156C30.7418 43.3051 29.1407 42.2812 29.1407 37.6852C29.1407 35.0039 28.6266 31.081 28.312 26.8243C28.1379 24.4683 30.7334 24.3184 32.4609 24.3184Z" fill="#D3D6EA"/>
<path d="M5.49731 24.7367C5.49731 24.7367 12.5507 24.3181 19.1883 24.3181C22.0928 24.3181 24.9973 22.6466 25.4102 26.4055C25.826 30.1644 26.2389 36.4292 26.2389 38.5193C26.2389 40.6095 26.2389 42.6968 22.5057 43.1154C18.5619 43.5566 11.972 43.4859 6.74169 43.9498C4.60967 44.1392 3.00854 42.2782 3.00854 37.6849C3.00854 35.0037 2.4945 31.0807 2.17989 26.8241C2.00573 24.468 3.76978 24.7367 5.49731 24.7367Z" fill="#D3D6EA"/>
<path d="M33.0609 33.7487C33.0609 33.7487 30.089 27.0172 30.089 19.4457C30.089 11.8742 31.0187 9.81801 32.1311 9.63134C33.2434 9.44467 34.2659 13.9304 34.9176 19.0724C35.5665 24.2143 36.4036 32.7192 36.4036 32.7192C36.4036 32.7192 37.5187 20.1924 38.6311 15.1438C39.7463 10.0952 40.5805 8.69516 41.7884 8.78849C42.9963 8.88183 42.7182 11.3114 42.6227 17.2028C42.5272 23.0943 40.117 33.0954 40.117 33.0954C40.117 33.0954 43.2743 23.841 45.2238 19.3552C47.1732 14.8695 49.117 14.9628 49.2154 16.2695C49.4934 19.9152 44.6676 31.6925 43.5524 34.8716C43.5524 34.8716 49.9569 28.4229 52.4654 26.7401C54.971 25.0572 56.5496 24.4972 57.4794 25.3372C58.4092 26.1772 48.3811 35.9011 44.3895 38.0506C44.3895 38.0506 49.6816 36.4611 55.1592 35.9944C60.6367 35.5278 61.6227 36.5544 61.7322 37.304C61.8418 38.0535 57.4794 39.6402 54.2294 40.203C50.9794 40.763 44.6676 40.6697 44.6676 40.6697C44.6676 40.6697 52.28 42.3526 56.3642 45.2488C60.4485 48.1479 60.1704 49.1746 59.7069 49.7346C59.2434 50.2946 50.9794 48.0517 48.1957 46.2755C45.4092 44.4993 42.7182 42.9098 42.7182 42.9098C42.7182 42.9098 48.617 47.7745 51.1451 51.0922C53.6732 54.407 54.2294 56.3727 53.5805 57.2127C52.9316 58.0528 49.589 56.0899 47.3614 54.127C45.1339 52.1641 40.2125 44.4993 40.2125 44.4993C40.2125 44.4993 42.8109 48.7984 43.3699 53.4737C43.926 58.1489 43.7406 61.7947 42.721 62.448C41.7013 63.1014 39.6564 61.5118 38.9148 55.7165C38.1732 49.9212 37.5215 44.686 37.5215 44.686C37.5215 44.686 37.0328 55.4818 35.6985 59.5716C34.3642 63.6614 32.1957 63.4691 31.9345 62.5838C31.6732 61.6985 31.6732 55.9032 32.5075 51.6975C33.3418 47.4917 34.2715 44.2193 34.2715 44.2193C34.2715 44.2193 31.9513 49.0812 29.2575 53.007C26.5665 56.9327 22.3867 60.0185 21.1816 58.7089C19.9738 57.3994 24.2463 50.8574 25.6367 48.7079C27.03 46.5583 31.5777 42.7259 31.5777 42.7259C31.5777 42.7259 22.4794 50.1107 14.6817 52.167C6.8839 54.2232 16.78 46.6517 21.3474 44.2221C25.9148 41.7926 29.9991 40.5764 29.9991 40.5764C29.9991 40.5764 18.0215 42.5392 12.7322 40.3897C7.44008 38.2401 12.0833 37.024 17.0019 36.9306C21.9232 36.8373 30.0918 37.8668 30.0918 37.8668C30.0918 37.8668 20.53 35.4372 17.3727 33.0049C14.2154 30.5753 13.7519 28.0496 15.794 27.9562C17.8361 27.8629 30.926 35.3411 30.926 35.3411C30.926 35.3411 19.5075 25.34 19.4148 21.0381C19.3221 16.739 26.1002 25.0572 27.8642 27.2067C29.6283 29.3563 33.0637 33.7515 33.0637 33.7515L33.0609 33.7487Z" fill="#16E25B"/>
<path d="M28.1766 31.6109C28.1766 32.6319 28.1766 33.6501 28.1738 34.6712C28.1738 35.1152 28.5615 35.5395 29.0165 35.5197C29.4716 35.4999 29.8564 35.1463 29.8592 34.6712C29.862 33.6501 29.8648 32.6319 29.862 31.6109C29.862 31.1668 29.4744 30.7426 29.0193 30.7624C28.5643 30.7822 28.1766 31.1357 28.1766 31.6109Z" fill="black"/>
<path d="M28.8367 41.5326C29.2805 41.2526 29.7468 41.0009 30.2159 40.7661C30.4154 40.6671 30.6148 40.5738 30.8171 40.4833C30.6626 40.5455 31.0053 40.3984 30.8171 40.4833C30.8704 40.4635 30.921 40.4408 30.9744 40.421C31.0783 40.3815 31.1822 40.3419 31.289 40.3051C31.4884 40.2372 31.6907 40.175 31.8985 40.1297C31.9463 40.1184 31.994 40.1099 32.0446 40.1014C32.244 40.0675 31.9407 40.1099 31.9996 40.1043C32.0923 40.0986 32.185 40.0873 32.2805 40.0901C32.7216 40.0901 33.1429 39.697 33.1232 39.2416C33.1036 38.7863 32.7525 38.3959 32.2805 38.3931C31.2974 38.3875 30.3171 38.8343 29.4519 39.2586C28.9519 39.5018 28.4603 39.7705 27.9884 40.0675C27.6148 40.3023 27.435 40.834 27.685 41.2271C27.935 41.6203 28.4378 41.7843 28.8367 41.5326Z" fill="black"/>
<path d="M9.76597 12.5488L12.8708 16.3135M6.66113 19.4508C7.07511 19.4508 8.27565 19.8273 9.76597 21.3331" stroke="black"/>
<path d="M5.41895 25.0981C5.62593 25.0981 6.53669 25.0981 8.52378 25.0981" stroke="black"/>
</g>
<defs>
<clipPath id="clip0_6661_7128">
<rect width="64" height="64" fill="white"/>
</clipPath>
</defs>
</svg>
