<svg width="64" height="64" viewBox="0 0 64 64" fill="none" xmlns="http://www.w3.org/2000/svg">
<path d="M30.8309 27.2171C30.8309 27.2171 27.8924 20.9581 27.8924 13.9164C27.8924 6.87462 28.8106 4.96242 29.9127 4.78829C31.0148 4.61417 32.0258 8.78683 32.6689 13.5681C33.3119 18.3494 34.139 26.2602 34.139 26.2602C34.139 26.2602 35.2411 14.6113 36.3433 9.91628C37.4454 5.22125 38.2724 3.91768 39.4657 4.00396C40.659 4.09024 40.3839 6.35069 40.2928 11.8285C40.2016 17.3047 37.8133 26.6069 37.8133 26.6069C37.8133 26.6069 40.9358 17.9996 42.865 13.827C44.7941 9.65431 46.715 9.74215 46.8145 10.9579C47.0896 14.3478 42.3131 25.3018 41.2109 28.2587C41.2109 28.2587 47.5487 22.2601 50.0281 20.6946C52.5075 19.1291 54.0687 18.6083 54.9886 19.391C55.9068 20.1738 45.9874 29.214 42.0379 31.2141C42.0379 31.2141 47.2736 29.7364 52.6931 29.3019C58.1127 28.8674 59.0872 29.8243 59.1966 30.5192C59.306 31.2141 54.9886 32.6934 51.7749 33.2142C48.5613 33.735 42.3147 33.6487 42.3147 33.6487C42.3147 33.6487 49.8458 35.2142 53.8881 37.9092C57.9287 40.6042 57.6536 41.561 57.1945 42.0818C56.7354 42.6026 48.5597 40.5163 45.8051 38.8645C43.0489 37.2127 40.3856 35.735 40.3856 35.735C40.3856 35.735 46.2228 40.2606 48.7238 43.3446C51.2247 46.4286 51.7749 48.2546 51.1319 49.0373C50.4888 49.8201 47.1824 47.9942 44.9781 46.1682C42.7738 44.3423 37.9061 37.2143 37.9061 37.2143C37.9061 37.2143 40.4784 41.2128 41.0286 45.5596C41.5789 49.9064 41.3966 53.2963 40.3856 53.9049C39.3746 54.5135 37.3542 53.0359 36.62 47.6459C35.8858 42.256 35.2428 37.3868 35.2428 37.3868C35.2428 37.3868 34.7605 47.4279 33.4396 51.2319C32.1186 55.0359 29.9757 54.8571 29.7155 54.0335C29.4553 53.21 29.4553 47.82 30.2823 43.9078C31.1093 39.9955 32.0275 36.9523 32.0275 36.9523C32.0275 36.9523 29.7304 41.4732 27.067 45.1251C24.4036 48.7769 20.2702 51.646 19.0752 50.4287C17.8819 49.2115 22.1065 43.1266 23.4838 41.1265C24.8611 39.1265 29.3625 35.5625 29.3625 35.5625C29.3625 35.5625 20.3613 42.4301 12.6463 44.3423C4.93128 46.2545 14.7213 39.2127 19.2409 36.9523C23.7606 34.6918 27.8012 33.5624 27.8012 33.5624C27.8012 33.5624 15.9527 35.3883 10.7171 33.3883C5.48153 31.3882 10.0741 30.2588 14.9417 30.1709C19.8094 30.0847 27.8924 31.04 27.8924 31.04C27.8924 31.04 18.4322 28.7795 15.308 26.5191C12.1856 24.2586 11.7265 21.9119 13.7468 21.824C15.7671 21.7362 28.7194 28.6917 28.7194 28.6917C28.7194 28.6917 17.4212 19.3895 17.33 15.3909C17.2389 11.3924 23.9429 19.1291 25.6881 21.1291C27.4333 23.1292 30.8325 27.214 30.8325 27.214L30.8309 27.2171Z" fill="#16E25B"/>
<rect x="5" y="38.0088" width="30.1005" height="22.4278" rx="4.11909" fill="#FED9C9"/>
<path d="M30.5397 26.8128C30.4739 28.2082 30.4941 29.6036 30.6005 30.9968C30.6258 31.3374 30.9322 31.6694 31.3601 31.6519C31.75 31.6366 32.1476 31.3636 32.1197 30.9968C32.0134 29.6036 31.9931 28.2082 32.059 26.8128C32.0742 26.47 31.6969 26.1425 31.2993 26.1577C30.8739 26.1752 30.5574 26.446 30.5397 26.8128Z" fill="black"/>
<path d="M37.0108 25.9996C36.9407 27.4137 36.9842 28.8299 37.146 30.2398C37.1847 30.5766 37.4503 30.8674 37.8706 30.8674C38.2328 30.8674 38.6337 30.5787 38.5951 30.2398C38.4333 28.8299 38.3898 27.4158 38.4598 25.9996C38.4767 25.6607 38.1145 25.3721 37.7353 25.3721C37.3296 25.3721 37.0277 25.6587 37.0108 25.9996Z" fill="black"/>
<path d="M19.5 49.4365L8 60.4365H32L19.5 49.4365Z" fill="#FFCAB3"/>
<path d="M20.3315 52.0781C16.3508 49.0469 7.72861 42.5968 5.0854 41.0461C5.68338 39.6582 6.95956 39.3911 7.5229 39.4311C15.5202 38.9259 31.8192 37.9413 33.037 38.0446C34.2547 38.1478 34.2693 39.0366 34.1244 39.468L20.3315 52.0781Z" stroke="black" stroke-width="0.678533"/>
</svg>
