<svg width="57" height="58" viewBox="0 0 57 58" fill="none" xmlns="http://www.w3.org/2000/svg">
<path d="M24.9506 26.628C24.9506 26.628 21.6825 19.4495 21.6825 11.3732C21.6825 3.29694 22.7036 1.10381 23.9294 0.904104C25.1552 0.704401 26.2796 5.49008 26.9947 10.9738C27.7099 16.4576 28.6297 25.5306 28.6297 25.5306C28.6297 25.5306 29.8554 12.1702 31.0812 6.78545C32.307 1.40066 33.2267 -0.0944114 34.5539 0.00454052C35.881 0.103492 35.575 2.69604 35.4737 8.97859C35.3723 15.2593 32.7162 25.9282 32.7162 25.9282C32.7162 25.9282 36.1888 16.0563 38.3344 11.2707C40.4799 6.48499 42.6162 6.58575 42.7268 7.98007C43.0328 11.868 37.7206 24.4313 36.4948 27.8226C36.4948 27.8226 43.5434 20.9428 46.3009 19.1472C49.0584 17.3517 50.7947 16.7544 51.8177 17.6522C52.8389 18.5499 41.8071 28.9183 37.4146 31.2122C37.4146 31.2122 43.2374 29.5174 49.2648 29.0191C55.2923 28.5207 56.3761 29.6182 56.4977 30.4152C56.6194 31.2122 51.8177 32.9088 48.2437 33.5061C44.6696 34.1034 37.7224 34.0044 37.7224 34.0044C37.7224 34.0044 46.0981 35.8 50.5938 38.8909C55.0876 41.9818 54.7817 43.0792 54.2711 43.6765C53.7605 44.2738 44.6678 41.881 41.6043 39.9865C38.539 38.0921 35.5769 36.3973 35.5769 36.3973C35.5769 36.3973 42.0688 41.5878 44.8503 45.1248C47.6317 48.6619 48.2437 50.7561 47.5285 51.6539C46.8133 52.5516 43.136 50.4574 40.6845 48.3633C38.233 46.2691 32.8194 38.0938 32.8194 38.0938C32.8194 38.0938 35.6801 42.6798 36.2921 47.6652C36.904 52.6506 36.7013 56.5385 35.5769 57.2366C34.4525 57.9346 32.2056 56.2398 31.389 50.058C30.5725 43.8762 29.8573 38.2918 29.8573 38.2918C29.8573 38.2918 29.3209 49.808 27.8518 54.1708C26.3828 58.5337 23.9995 58.3286 23.7101 57.3841C23.4207 56.4395 23.4207 50.2577 24.3405 45.7707C25.2602 41.2837 26.2814 37.7934 26.2814 37.7934C26.2814 37.7934 23.7267 42.9785 20.7646 47.1668C17.8025 51.3552 13.2054 54.6458 11.8764 53.2497C10.5493 51.8536 15.2477 44.8748 16.7795 42.5809C18.3112 40.287 23.3174 36.1994 23.3174 36.1994C23.3174 36.1994 13.3068 44.0759 4.72647 46.2691C-3.85385 48.4622 7.03421 40.3859 12.0607 37.7934C17.0873 35.2009 21.5811 33.9055 21.5811 33.9055C21.5811 33.9055 8.40374 35.9997 2.58092 33.7058C-3.24189 31.4119 1.86574 30.1165 7.27936 30.0158C12.693 29.9168 21.6825 31.0125 21.6825 31.0125C21.6825 31.0125 11.1612 28.4199 7.68672 25.8274C4.21404 23.2349 3.70347 20.5434 5.95039 20.4426C8.1973 20.3419 22.6023 28.3192 22.6023 28.3192C22.6023 28.3192 10.0369 17.6504 9.93548 13.0644C9.83411 8.47843 17.29 17.3517 19.231 19.6456C21.1719 21.9395 24.9524 26.6244 24.9524 26.6244L24.9506 26.628Z" fill="#16E25B"/>
<path d="M22.1772 22.2888C22.1151 24.2276 22.1342 26.1663 22.2345 28.102C22.2584 28.5753 22.5473 29.0364 22.9509 29.0121C23.3187 28.9909 23.6936 28.6117 23.6673 28.102C23.567 26.1663 23.5479 24.2276 23.61 22.2888C23.6243 21.8125 23.2685 21.3574 22.8936 21.3786C22.4924 21.4029 22.1939 21.7791 22.1772 22.2888Z" fill="black"/>
<path d="M29.8078 19.9598C29.7417 21.9245 29.7827 23.8922 29.9353 25.8511C29.9718 26.319 30.2223 26.723 30.6186 26.723C30.9603 26.723 31.3384 26.3219 31.3019 25.8511C31.1493 23.8922 31.1083 21.9275 31.1744 19.9598C31.1903 19.489 30.8487 19.0879 30.4911 19.0879C30.1084 19.0879 29.8237 19.4861 29.8078 19.9598Z" fill="black"/>
<path d="M24.8294 33.7719C27.0697 32.8988 29.3652 32.192 31.7005 31.6515L30.5359 30.7272C30.9558 34.9233 31.3604 39.1227 31.7465 43.322L32.9111 42.3977C31.9856 42.1003 31.2776 41.387 30.6769 40.6195C30.0088 39.7623 29.4602 38.7772 28.9944 37.789C28.0382 35.7581 27.4988 33.5097 27.4038 31.2485C27.3609 30.2058 25.8469 29.8988 25.5986 30.9926C25.5619 31.1557 25.5251 31.322 25.4883 31.4852C25.2155 32.6845 26.99 33.1994 27.2628 31.9969C27.2996 31.8338 27.3363 31.6675 27.3731 31.5043L25.568 31.2485C25.6814 33.9063 26.325 36.5033 27.4681 38.8796C28.5224 41.0736 30.064 43.4915 32.4269 44.2495C32.9571 44.419 33.6467 43.9425 33.5915 43.3252C33.2053 39.1259 32.8008 34.9265 32.3809 30.7304C32.3166 30.0939 31.8477 29.6589 31.2163 29.8061C28.881 30.3466 26.5855 31.0534 24.3451 31.9265C23.8793 32.1088 23.5636 32.5758 23.7016 33.1067C23.8241 33.5736 24.3635 33.9574 24.8324 33.7783L24.8294 33.7719Z" fill="black"/>
</svg>
