<svg width="64" height="64" viewBox="0 0 64 64" fill="none" xmlns="http://www.w3.org/2000/svg">
<g clip-path="url(#clip0_6661_8257)">
<g clip-path="url(#clip1_6661_8257)">
<path d="M22.6415 57.8721C18.7043 58.128 14.6625 58.0906 10.9401 56.8008C7.215 55.511 3.82268 52.7874 2.58545 49.0671C1.23818 45.011 2.67401 40.4352 5.31756 37.0667C7.9611 33.6982 11.6701 31.329 15.3899 29.1838C28.8947 21.3941 43.5993 15.6537 58.8352 12.2186C60.2093 11.9094 61.9591 11.7602 62.716 12.9381C63.5909 14.2999 62.2839 15.9842 61.0574 17.0395C56.7365 20.7518 52.0774 24.075 47.1526 26.9532C50.1665 25.8152 53.3898 25.2209 56.613 25.205C58.7252 25.1943 61.4143 25.9751 61.5673 28.0671C61.6639 29.3996 60.6065 30.5162 59.592 31.3957C56.664 33.9327 53.4193 36.11 49.9572 37.8635C51.0227 37.3519 52.1445 36.8269 53.3254 36.8722C54.5089 36.9175 55.7515 37.7383 55.832 38.9109C55.8884 39.753 55.3597 40.5099 54.839 41.1761C48.6743 49.0431 37.7459 54.5596 31.5732 55.892C26.3102 57.0273 22.6388 57.8721 22.6388 57.8721H22.6415Z" fill="#FBAA7F"/>
<path d="M11.8185 39.7119C10.5764 38.3113 8.85601 38.0105 7.2288 38.0004C5.28278 37.9877 3.33261 38.3012 1.45283 38.9105L1.93106 40.2959C2.02008 40.215 2.1091 40.1366 2.19812 40.0557C2.46725 39.813 2.60388 39.3984 2.4217 39.0192C2.26644 38.6931 1.84411 38.5035 1.5729 38.7462C1.48388 38.8271 1.39486 38.9054 1.30584 38.9863C1.05741 39.2088 0.918708 39.5627 1.0512 39.9343C1.17542 40.2782 1.47767 40.4728 1.78407 40.3742C3.49823 39.8181 5.25586 39.5248 7.03213 39.5172C8.37365 39.5096 9.90769 39.6183 10.9428 40.7838C11.1892 41.0619 11.5763 41.0821 11.8206 40.7838C12.0504 40.5032 12.069 39.99 11.8206 39.7119H11.8185Z" fill="black"/>
<path d="M14.8391 38.0686C15.027 37.0479 15.8456 36.2244 16.5729 35.5315C17.3002 34.8387 18.1402 34.2364 19.0366 33.746C20.8643 32.744 22.9227 32.2403 24.9973 32.2829C25.8991 32.3016 26.0977 30.9291 25.212 30.7133C24.8014 30.612 24.3827 30.5694 23.9614 30.6173C23.54 30.6653 23.1562 30.9505 23.1562 31.4168C23.1562 31.8112 23.5266 32.2643 23.9614 32.2163C24.2432 32.1843 24.5062 32.187 24.7826 32.2563L24.9973 30.6866C21.291 30.612 17.5793 32.1417 15.0243 34.812C14.2621 35.6088 13.4865 36.5389 13.2852 37.6475C13.2074 38.0713 13.4033 38.5083 13.8488 38.6309C14.2407 38.7375 14.7613 38.5003 14.8391 38.0713V38.0686Z" fill="black"/>
<path d="M18.0546 50.3835C18.1405 50.4981 18.2264 50.6154 18.3364 50.7113C18.4142 50.7806 18.5001 50.8419 18.5833 50.9032C18.6155 50.9272 18.6504 50.9485 18.6853 50.9671C18.7202 50.9858 18.7551 51.0044 18.7927 51.0204C18.8866 51.0604 18.9832 51.1057 19.0798 51.1377C19.2221 51.183 19.375 51.199 19.5227 51.2123C19.6327 51.2176 19.7374 51.1937 19.834 51.143C19.9333 51.111 20.0192 51.0551 20.0943 50.9778C20.1721 50.9058 20.2285 50.8206 20.2607 50.7193C20.3117 50.6234 20.3332 50.5221 20.3305 50.4102L20.301 50.197C20.2634 50.061 20.1936 49.9438 20.0943 49.8452L19.9306 49.7199C19.8045 49.648 19.6703 49.6107 19.5253 49.6107C19.5092 49.6107 19.4931 49.608 19.477 49.6053L19.6917 49.6347C19.5978 49.6213 19.5039 49.5947 19.4153 49.5574L19.6085 49.6373C19.52 49.6 19.4368 49.552 19.3616 49.4934L19.5253 49.6187C19.4529 49.5627 19.3885 49.4987 19.3321 49.4241L19.4582 49.5867L19.4502 49.576C19.3992 49.4827 19.3294 49.4081 19.2435 49.3522C19.1657 49.2802 19.0745 49.2349 18.9698 49.2083C18.8624 49.1736 18.7551 49.1709 18.6477 49.1949C18.5404 49.2003 18.4411 49.2322 18.3472 49.2909L18.1834 49.4161C18.0841 49.5147 18.0144 49.6347 17.9768 49.7679L17.9473 49.9811C17.9473 50.125 17.9848 50.2609 18.0573 50.3835H18.0546Z" fill="black"/>
<path d="M10.0187 43.7975C9.91405 45.0473 10.2522 46.3452 10.9366 47.3978C11.1647 47.7496 11.6612 47.9255 12.0369 47.6856C12.3912 47.4591 12.571 46.9688 12.3268 46.593C12.2463 46.4704 12.1711 46.3452 12.1013 46.2146C12.0477 46.116 11.9457 45.9774 11.9323 45.8681C11.9779 45.9747 11.9833 45.9881 11.9484 45.9081C11.935 45.8735 11.9215 45.8388 11.9081 45.8042C11.8893 45.7535 11.8705 45.7002 11.8518 45.6496C11.8061 45.519 11.7686 45.3884 11.7337 45.2525C11.6988 45.1166 11.6719 44.9834 11.6478 44.8475C11.6424 44.8208 11.6397 44.7942 11.6344 44.7648C11.6263 44.7035 11.629 44.7275 11.6451 44.8421C11.6156 44.8048 11.6263 44.6689 11.6236 44.6236C11.6022 44.3491 11.6048 44.0746 11.6263 43.8001C11.6612 43.3817 11.2318 42.982 10.8212 43.0006C10.3542 43.0219 10.0536 43.3524 10.016 43.8001L10.0187 43.7975Z" fill="black"/>
<path d="M15.3198 41.7461C15.395 42.0526 15.4513 42.3617 15.5426 42.6629C15.6338 42.964 15.7465 43.2492 15.8834 43.5237C16.031 43.8168 16.2645 44.0433 16.4631 44.2992L16.337 44.1366C16.3853 44.2006 16.4255 44.2672 16.4604 44.3418L16.3799 44.1499C16.3987 44.2006 16.4148 44.2485 16.4255 44.3018C16.5061 44.7122 17.024 44.9867 17.4159 44.8615C17.8587 44.7202 18.0627 44.3178 17.9795 43.8781C17.8963 43.4384 17.5903 43.1719 17.3327 42.8521L17.4588 43.0146C17.3488 42.8707 17.2656 42.7055 17.1931 42.5403L17.2736 42.7322C17.0804 42.2765 16.9918 41.8021 16.8737 41.3251C16.7718 40.92 16.2887 40.6348 15.8834 40.7654C15.4782 40.896 15.2125 41.3144 15.3198 41.7488V41.7461Z" fill="black"/>
</g>
</g>
<defs>
<clipPath id="clip0_6661_8257">
<rect width="64" height="64" fill="white"/>
</clipPath>
<clipPath id="clip1_6661_8257">
<rect width="66" height="46" fill="white" transform="translate(-3 12)"/>
</clipPath>
</defs>
</svg>
