<svg width="48" height="48" viewBox="0 0 48 48" fill="none" xmlns="http://www.w3.org/2000/svg">
<path d="M28.2412 6.00347C30.0436 6.00347 33.5607 6.85345 35.0489 10.0504C36.6504 13.4902 34.4481 15.7158 34.4481 15.7158C34.4481 15.7158 36.8513 12.276 40.655 14.5015C44.4588 16.7271 44.8605 21.3812 42.6582 24.4168C40.4559 27.4525 38.4528 27.6537 38.4528 27.6537C38.4528 27.6537 42.2566 29.2721 41.0567 34.3321C39.8552 39.3904 31.6451 43.0331 27.8413 36.5577C27.8413 36.5577 25.0382 45.6646 16.8281 42.223C8.61806 38.7832 12.8235 29.8792 12.8235 29.8792C12.8235 29.8792 3.61271 31.9036 4.01266 23.808C4.14311 21.1626 5.08719 19.3586 6.45354 18.153C7.67741 17.0723 10.8203 16.1182 10.8203 16.1182C10.8203 16.1182 8.9442 10.5274 12.6227 7.61843C17.2281 3.97566 21.8335 9.23686 21.8335 9.23686C21.8335 9.23686 24.5267 6 28.2412 6V6.00347Z" fill="#FFC5C2"/>
<path d="M15.0918 22.4154C16.5609 21.3085 18.5457 21.097 20.1638 21.9549C20.4338 22.0972 20.7689 22.032 20.9272 21.7414C21.0724 21.4785 20.9979 21.0733 20.7261 20.931C18.771 19.8932 16.3207 20.0375 14.5258 21.3915C14.28 21.5773 14.1627 21.9094 14.3247 22.2019C14.4662 22.4589 14.8423 22.6012 15.0881 22.4154H15.0918Z" fill="black"/>
<path d="M27.4034 20.721C27.7956 20.0089 28.4741 19.4743 29.2957 19.2529C30.2232 19.0028 31.2275 19.2185 32.0658 19.7092C32.35 19.8753 32.7526 19.7626 32.9165 19.503C33.0928 19.2261 32.9766 18.8863 32.6924 18.7202C31.5968 18.0787 30.2274 17.8076 28.9638 18.1474C27.8412 18.4491 26.8557 19.1803 26.3265 20.1425C26.1751 20.4194 26.2477 20.763 26.5506 20.9253C26.8287 21.0742 27.2499 20.9979 27.4014 20.7191L27.4034 20.721Z" fill="black"/>
<path d="M19.1852 25.1248C19.9376 25.2757 20.6346 25.5852 21.3513 25.8419C22.1097 26.1136 22.8977 26.2853 23.7115 26.2438C24.5253 26.2023 25.3767 25.9891 26.1687 25.7117C26.9607 25.4342 27.6695 25.1549 28.3902 24.8247C29.1763 24.4643 29.9208 24.0246 30.5643 23.4565C31.1266 22.9602 30.2851 22.1601 29.7247 22.6564C29.0733 23.232 28.2873 23.6377 27.4814 23.9849C26.6241 24.3548 25.739 24.7058 24.8262 24.9323C23.9134 25.1587 23.0205 25.1776 22.1156 24.9021C21.2107 24.6265 20.4108 24.217 19.5 24.034C19.1872 23.9717 18.8585 24.1227 18.7694 24.4303C18.6882 24.7115 18.8684 25.0644 19.1852 25.1266V25.1248Z" fill="black"/>
</svg>
