<svg width="64" height="64" viewBox="0 0 64 64" fill="none" xmlns="http://www.w3.org/2000/svg">
<g clip-path="url(#clip0_6661_7688)">
<path d="M38.9103 4.00056C41.7288 4.00056 47.2289 5.33301 49.5562 10.3447C52.0606 15.7371 48.6167 19.2259 48.6167 19.2259C48.6167 19.2259 52.3747 13.8336 58.323 17.3224C64.2714 20.8113 64.8995 28.1072 61.4556 32.8659C58.0117 37.6247 54.8791 37.9402 54.8791 37.9402C54.8791 37.9402 60.8275 40.4773 58.9511 48.4095C57.0722 56.339 44.2333 62.0495 38.2849 51.8983C38.2849 51.8983 33.9015 66.1747 21.0626 60.7796C8.22366 55.3872 14.8001 41.429 14.8001 41.429C14.8001 41.429 0.39631 44.6025 1.02175 31.9115C1.22575 27.7645 2.70211 24.9365 4.83879 23.0465C6.75268 21.3524 11.6676 19.8568 11.6676 19.8568C11.6676 19.8568 8.73368 11.0925 14.4861 6.53223C21.688 0.821692 28.8899 9.06933 28.8899 9.06933C28.8899 9.06933 33.1016 3.99512 38.9103 3.99512V4.00056Z" fill="#FDD5D3"/>
<path d="M27.2656 26.505C25.1477 28.0278 22.2862 28.3188 19.9536 27.1386C19.5644 26.9428 19.0812 27.0326 18.853 27.4323C18.6437 27.794 18.751 28.3514 19.1429 28.5472C21.9614 29.9749 25.4939 29.7764 28.0816 27.9136C28.4359 27.658 28.605 27.2012 28.3715 26.7987C28.1675 26.4452 27.6253 26.2494 27.2709 26.505H27.2656Z" fill="black"/>
<path d="M40.0673 23.5057C39.56 24.52 38.6822 25.2814 37.6193 25.5969C36.4194 25.9531 35.1202 25.6458 34.0358 24.947C33.668 24.7104 33.1473 24.8708 32.9352 25.2406C32.707 25.6349 32.8574 26.119 33.2251 26.3556C34.6424 27.2692 36.414 27.6554 38.0488 27.1713C39.501 26.7417 40.776 25.7002 41.4605 24.3297C41.6564 23.9354 41.5625 23.4459 41.1706 23.2148C40.8109 23.0027 40.266 23.1114 40.07 23.5084L40.0673 23.5057Z" fill="black"/>
<path d="M27.5339 32.3272C27.848 33.0233 28.5459 33.5128 29.268 33.6977C30.1162 33.9152 31.0074 33.7575 31.8368 33.5372C33.1977 33.1729 34.4701 32.4713 35.0123 31.0899C35.1734 30.6793 34.8351 30.1952 34.4486 30.0865C33.9896 29.9586 33.6192 30.2442 33.4581 30.6575C33.4903 30.5786 33.4581 30.6575 33.4393 30.6901C33.4071 30.75 33.3749 30.8098 33.3373 30.8669C33.3293 30.8778 33.2461 31.0001 33.2836 30.9485C33.3212 30.8968 33.2273 31.011 33.2165 31.0219C33.1333 31.1116 33.0447 31.1959 32.9508 31.2748C33.0152 31.2204 32.9454 31.2775 32.9186 31.2993C32.8622 31.3401 32.8032 31.3781 32.7441 31.4135C32.3039 31.6881 31.9979 31.7969 31.4852 31.9383C30.9725 32.0797 30.4034 32.2293 29.8639 32.1586C29.582 32.1232 29.4451 32.0579 29.2438 31.9247C29.166 31.873 29.174 31.8758 29.0747 31.7724C29.0156 31.7099 28.9861 31.6501 28.919 31.5032C28.7392 31.1035 28.1647 31.0029 27.8184 31.2095C27.4131 31.4515 27.3487 31.9247 27.5285 32.3244L27.5339 32.3272Z" fill="black"/>
<path d="M24.0527 13.9198C24.0527 13.9198 18.6036 11.3011 14.7678 13.4521C10.932 15.6031 16.2469 21.5665 16.2469 21.5665C16.2469 21.5665 22.8126 19.508 24.5574 17.2972C24.5574 17.2972 32.2264 19.4237 33.0907 15.9865C33.955 12.552 30.546 8.10596 30.546 8.10596C30.546 8.10596 28.0174 9.25894 24.05 13.9171L24.0527 13.9198Z" fill="#FFB999"/>
<path d="M4.83594 23.0489L22.222 16.8298L18.7324 13.2947C18.7324 13.2947 13.8846 12.5687 9.73206 14.8366C5.57948 17.1045 4.83594 23.0516 4.83594 23.0516V23.0489Z" fill="#FFB999"/>
<path d="M30.2747 10.8471C30.2747 10.8471 45.9885 6.41735 48.7345 8.90552C51.4805 11.3937 50.2055 16.2232 50.2055 16.2232C50.2055 16.2232 32.4221 14.2027 30.2747 14.8363C28.1273 15.4699 30.2747 10.8471 30.2747 10.8471Z" fill="#FFB999"/>
<path d="M13.1493 48.1668C13.1493 48.1668 23.8274 40.9742 33.6277 36.3786C43.428 31.783 63.2702 23.916 63.2702 23.916C63.2702 23.916 65.7934 28.7808 61.4556 32.8652C61.4556 32.8652 39.7022 41.9477 31.2306 46.7908C22.759 51.6339 14.4378 56.8005 14.4378 56.8005C14.4378 56.8005 11.5925 55.0303 13.1493 48.164V48.1668Z" fill="#FFB999"/>
</g>
<defs>
<clipPath id="clip0_6661_7688">
<rect width="63" height="58" fill="white" transform="translate(1 4)"/>
</clipPath>
</defs>
</svg>
