<svg width="64" height="64" viewBox="0 0 64 64" fill="none" xmlns="http://www.w3.org/2000/svg">
<g clip-path="url(#clip0_6661_8844)">
<path d="M32.7534 34.4636C32.7534 34.4636 30.3234 24.4585 13.6537 28.3283C-3.01587 32.1981 -1.8244 46.0622 9.17037 47.8846C20.1651 49.7069 31.0803 40.4058 31.0803 40.4058C31.0803 40.4058 51.6647 57.2571 58.1869 48.124C64.7092 38.9908 63.2751 28.75 50.7738 28.3319C38.2725 27.9138 32.757 34.4671 32.757 34.4671L32.7534 34.4636Z" fill="#658C79"/>
<path d="M29.3673 39.3697C28.958 40.7811 28.6828 42.239 28.4293 43.6861C27.7847 47.3737 27.4298 51.1113 27.3791 54.8525C27.3429 57.5502 27.4696 60.2445 27.7666 62.9244C27.8318 63.4997 28.2193 63.9963 28.853 63.9963C29.389 63.9963 30.0046 63.5032 29.9395 62.9244C29.4469 58.4829 29.4252 53.9949 29.8308 49.5427C30.0807 46.7734 30.4646 44.165 31.1056 41.3743C31.2142 40.8955 31.3301 40.4131 31.4641 39.9378C31.848 38.6086 29.7511 38.0404 29.3673 39.3661V39.3697Z" fill="#658C79"/>
<path d="M30.2517 29.395C29.5406 30.5281 28.8294 31.6611 28.1182 32.7941C27.8853 33.1647 27.9955 33.6882 28.4581 33.895C28.9206 34.1017 29.4997 34.0024 29.7483 33.605C30.4594 32.4719 31.1706 31.3389 31.8818 30.2059C32.1147 29.8353 32.0045 29.3118 31.5419 29.105C31.0794 28.8983 30.5003 28.9976 30.2517 29.395Z" fill="#FFF7CE"/>
<path d="M35.2517 30.395C34.5406 31.5281 33.8294 32.6611 33.1182 33.7941C32.8853 34.1647 32.9955 34.6882 33.4581 34.895C33.9206 35.1017 34.4997 35.0024 34.7483 34.605C35.4594 33.4719 36.1706 32.3389 36.8818 31.2059C37.1147 30.8353 37.0045 30.3118 36.5419 30.105C36.0794 29.8983 35.5003 29.9976 35.2517 30.395Z" fill="#FFF7CE"/>
<path d="M20.1313 37.0763C22.1793 39.8618 25.2726 41.4427 28.5847 41.8759C32.2614 42.3564 36.0354 41.3889 39.4021 39.8839C41.1372 39.1093 42.7203 38.0374 43.8476 36.4344C44.4554 35.5681 43.0941 34.4741 42.4164 35.2835C42.2736 35.4543 42.1308 35.625 41.988 35.7957C41.6659 36.1815 41.6234 36.7569 41.988 37.1363C42.3192 37.481 42.9512 37.5252 43.2764 37.1363C43.4192 36.9656 43.562 36.7949 43.7048 36.6241L42.2736 35.4732C41.4441 36.6557 40.1831 37.4367 38.9251 38.0374C37.4726 38.733 35.9138 39.2484 34.358 39.6183C31.3863 40.3234 28.1684 40.3519 25.3577 39.0176C23.9599 38.3505 22.6503 37.3956 21.7083 36.1151C21.4105 35.7104 20.9243 35.4922 20.4625 35.7736C20.0796 36.0076 19.8335 36.6621 20.1343 37.0699L20.1313 37.0763Z" fill="#FFF7CE"/>
<path d="M43.1505 15.018L43.4765 14.4963C43.7626 14.0389 43.6105 13.4315 43.1976 13.1135C42.7848 12.7955 42.122 12.7883 41.7708 13.1957C40.7314 14.4141 39.692 15.6326 38.6527 16.8475C38.4644 17.069 38.334 17.3049 38.334 17.605C38.334 17.8694 38.4535 18.1803 38.6527 18.3625C39.0547 18.727 39.7971 18.8199 40.1882 18.3625C41.2275 17.1441 42.2669 15.9256 43.3063 14.7107L41.6005 13.4101L41.2746 13.9318C40.974 14.4106 41.1551 15.1324 41.6657 15.3968C42.1764 15.6612 42.8318 15.5218 43.1505 15.0109V15.018Z" fill="#909FC6"/>
<path d="M49.0964 16.2404C48.1403 17.877 47.1842 19.5135 46.2282 21.1465C45.9565 21.611 46.0833 22.2042 46.507 22.5293C46.9307 22.8545 47.5536 22.8295 47.9339 22.4471C48.1186 22.2613 48.3033 22.0719 48.488 21.8861C48.8827 21.4824 48.9262 20.7641 48.488 20.3711C48.0498 19.978 47.3762 19.9423 46.9524 20.3711C46.7678 20.5569 46.5831 20.7463 46.3984 20.9321L48.1041 22.2327C49.0601 20.5962 50.0162 18.9597 50.9723 17.3267C51.2548 16.8407 51.1027 16.1332 50.5812 15.8617C50.0597 15.5901 49.3969 15.7259 49.0964 16.2476V16.2404Z" fill="#909FC6"/>
<path d="M47.3151 3.08376C47.0326 3.55185 46.7284 4.00565 46.4025 4.44516C46.3156 4.56308 46.2251 4.68099 46.1381 4.79534C46.2287 4.67742 46.178 4.74531 46.1164 4.82392C46.0693 4.88109 46.0223 4.93826 45.9752 4.99544C45.7941 5.21698 45.6094 5.43137 45.4175 5.64576C44.6135 6.54264 43.7262 7.36806 42.7883 8.12915C42.3465 8.48647 42.3863 9.27973 42.7883 9.6442C43.2555 10.0694 43.853 10.0265 44.3238 9.6442C46.2323 8.09342 47.9199 6.26036 49.191 4.16287C49.4844 3.68049 49.3178 2.96585 48.7999 2.69785C48.2821 2.42986 47.6266 2.56922 47.3151 3.08376Z" fill="#909FC6"/>
<path d="M29.773 9.60849C27.716 11.6202 25.764 13.7356 23.9388 15.9581C23.5947 16.3762 23.5006 16.9122 23.8555 17.366C24.2104 17.8198 24.7609 17.8769 25.257 17.6411C25.5721 17.491 25.8835 17.3409 26.1986 17.1909C26.7128 16.9479 26.8903 16.1832 26.5897 15.7258C26.2493 15.2077 25.6517 15.0791 25.1049 15.3399C24.7898 15.49 24.4784 15.6401 24.1633 15.7902L25.4815 17.4732C27.3067 15.2506 29.2587 13.1353 31.3157 11.1235C31.7213 10.7269 31.7467 9.99797 31.3157 9.60849C30.8848 9.21901 30.2112 9.18685 29.7802 9.60849H29.773Z" fill="#909FC6"/>
<path d="M40.3619 3.62303C38.9495 5.07018 37.5335 6.51734 36.1212 7.96449C35.7264 8.36827 35.683 9.08291 36.1212 9.47954C36.5594 9.87617 37.2366 9.9119 37.6567 9.47954C39.069 8.03238 40.485 6.58523 41.8974 5.13807C42.2921 4.7343 42.3356 4.01965 41.8974 3.62303C41.4592 3.2264 40.782 3.19067 40.3619 3.62303Z" fill="#909FC6"/>
<path d="M54.5793 5.42422C53.2864 7.30016 51.9972 9.17611 50.7043 11.0556C50.3856 11.5201 50.5993 12.2634 51.0954 12.5206C51.6459 12.8065 52.2398 12.6314 52.5802 12.1347C53.8731 10.2588 55.1624 8.38285 56.4552 6.50334C56.7739 6.03882 56.5602 5.29559 56.0641 5.03831C55.5136 4.75246 54.9197 4.92754 54.5793 5.42422Z" fill="#909FC6"/>
<path d="M32.0578 15.0682C29.903 17.0228 27.7953 19.0273 25.7347 21.0784C25.3327 21.4786 25.3002 22.2004 25.7347 22.5934C26.1693 22.9865 26.8429 23.0186 27.2702 22.5934C29.3308 20.5424 31.4385 18.5414 33.5933 16.5833C34.0134 16.2009 34.0134 15.447 33.5933 15.0682C33.1442 14.6609 32.5033 14.6609 32.0578 15.0682Z" fill="#909FC6"/>
<path d="M22.2612 9.56541C20.3165 10.934 18.3718 12.2989 16.427 13.6675C15.9671 13.9926 15.6991 14.6179 16.0359 15.1325C16.3727 15.647 16.9739 15.7828 17.5207 15.5184C18.0676 15.254 18.5601 15.0146 19.078 14.7644C19.5958 14.5143 19.7697 13.7604 19.4691 13.2994C19.1323 12.7813 18.5311 12.6491 17.9843 12.9135C17.4374 13.1779 16.9449 13.4173 16.427 13.6675L17.5244 15.5184C19.4691 14.1499 21.4138 12.7849 23.3585 11.4163C23.8185 11.0912 24.0865 10.4659 23.7497 9.95132C23.4527 9.50109 22.7574 9.21881 22.2649 9.56541H22.2612Z" fill="#909FC6"/>
<path d="M36.0703 0.153641C33.7815 1.69727 31.4891 3.24091 29.2003 4.78811C28.7332 5.10256 28.476 5.74574 28.8092 6.25313C29.1098 6.71408 29.7943 6.97492 30.294 6.63904C32.5828 5.09541 34.8752 3.55178 37.1639 2.00457C37.6311 1.69013 37.8882 1.04695 37.5551 0.539549C37.2545 0.0786032 36.57 -0.182242 36.0703 0.153641Z" fill="#909FC6"/>
</g>
<defs>
<clipPath id="clip0_6661_8844">
<rect width="61" height="64" fill="white" transform="translate(1)"/>
</clipPath>
</defs>
</svg>
