<svg width="64" height="64" viewBox="0 0 64 64" fill="none" xmlns="http://www.w3.org/2000/svg">
<g clip-path="url(#clip0_6661_5738)">
<path d="M29.2325 13.361C16.8424 16.2511 12.8707 22.5771 11.2534 31.7933C9.27659 43.0574 19.0472 55.545 34.248 52.5487C50.6865 49.3084 52.9556 37.7004 51.7137 27.9723C50.4719 18.244 38.0324 11.3098 29.2325 13.361Z" fill="#F2D146"/>
<path d="M24.1226 29.3799C24.0365 29.9518 23.9505 30.5211 23.8644 31.093L23.7352 31.9495C23.7164 32.0825 23.6949 32.2129 23.6761 32.3459C23.6519 32.5214 23.6384 32.6518 23.6761 32.8247C23.6841 32.8619 23.6949 32.8965 23.7083 32.9311C23.6788 32.7316 23.7326 32.5427 23.8751 32.3698L24.2302 32.165L24.1952 32.173H24.6257L24.6041 32.165L25.0857 32.5321L25.161 33.0614L24.9538 33.4126L24.9673 33.3966L24.6122 33.6014H24.6283C24.4212 33.5722 24.2141 33.5429 24.0069 33.5163L24.0258 33.5269C24.3755 33.761 24.935 33.6041 25.1287 33.2397C25.3439 32.8353 25.2148 32.3964 24.8382 32.149C24.3755 31.8405 23.7595 32.1437 23.6061 32.6332C23.4662 33.0801 23.7272 33.5775 24.1872 33.7052C24.6472 33.8328 25.1341 33.5269 25.2767 33.0747C25.3251 32.9205 25.3358 32.6544 25.2659 32.5028C25.196 32.3512 25.2713 32.6677 25.2444 32.7023C25.2632 32.6784 25.2686 32.5374 25.274 32.5055C25.4085 31.6037 25.5457 30.7046 25.6802 29.8029C25.7124 29.5821 25.7178 29.3879 25.5995 29.1884C25.5026 29.0235 25.3089 28.8639 25.1179 28.8213C24.7333 28.7362 24.1926 28.9384 24.1253 29.3799H24.1226Z" fill="black"/>
<path d="M34.4777 28.1963C34.1065 29.2736 33.7998 30.3722 33.555 31.4867C33.4662 31.8937 33.6788 32.3699 34.1199 32.4683C34.5261 32.5587 35.0184 32.3459 35.1126 31.9097C35.3574 30.7951 35.664 29.6992 36.0353 28.6192C36.1724 28.2229 35.8792 27.7281 35.4703 27.6376C35.0238 27.5366 34.623 27.7706 34.4777 28.1963Z" fill="black"/>
<path d="M25.8342 37.4532C26.7434 39.278 28.8632 40.3101 30.8753 40.0068C32.8875 39.7036 34.5016 38.0251 34.7867 36.1019C34.8513 35.6763 34.6791 35.2453 34.2218 35.1203C33.8425 35.0166 33.2937 35.248 33.2292 35.6789C33.022 37.0754 31.9621 38.2299 30.5391 38.4533C29.9634 38.5438 29.229 38.4055 28.6722 38.1129C28.0185 37.7724 27.5531 37.3042 27.2249 36.6472C27.0312 36.2615 26.4771 36.1551 26.122 36.3599C25.7239 36.5913 25.6405 37.0648 25.8315 37.4505L25.8342 37.4532Z" fill="black"/>
<path d="M11.3685 10.436C12.2672 11.4554 13.166 12.4748 14.0647 13.4941C14.2526 13.7073 14.6384 13.6387 14.811 13.4444C15.0219 13.2084 14.9567 12.9151 14.7687 12.7019C13.87 11.6826 12.9713 10.6632 12.0725 9.64383C11.8846 9.43069 11.4989 9.49926 11.3262 9.69356C11.1154 9.92952 11.1806 10.2229 11.3685 10.436Z" fill="#010101"/>
<path d="M30.7659 3.86029C30.9926 4.65675 31.0871 5.3938 31.0667 6.22792C31.0563 6.63086 31.011 6.97531 30.9567 7.34953C30.9081 7.69189 31.0283 8.07583 31.4068 8.16518C31.7548 8.24831 32.0551 8.05877 32.1686 7.72854C32.2602 7.45817 32.0494 7.15682 31.7889 7.09266C31.4946 7.02019 31.2374 7.20631 31.1458 7.47668L31.1353 7.50736L31.2666 7.27233L31.2435 7.29222L31.4861 7.14731L31.6563 7.13931L31.8913 7.26754L31.9908 7.54788L32.0008 7.48896C32.0117 7.45197 32.0141 7.4078 32.0201 7.36962C32.0357 7.26472 32.0497 7.16072 32.0613 7.05613C32.0808 6.89593 32.098 6.73514 32.1097 6.57556C32.1322 6.2447 32.1349 5.91149 32.1188 5.58133C32.0846 4.9039 31.9755 4.22849 31.7907 3.57793C31.7138 3.30444 31.4198 3.13612 31.1417 3.21474C30.8636 3.29335 30.6923 3.58889 30.7701 3.86388L30.7659 3.86029Z" fill="#010101"/>
<path d="M48.2129 14.1051C49.032 12.6941 49.9543 11.3408 50.9527 10.0504C51.3703 9.51267 50.5377 8.87149 50.1183 9.41276C49.0612 10.7779 48.1056 12.2132 47.2385 13.7043C47.0956 13.952 47.2792 14.2926 47.5171 14.3911C47.806 14.5102 48.0651 14.3522 48.2091 14.1059L48.2129 14.1051Z" fill="#010101"/>
<path d="M54.8986 23.6938C55.6277 23.456 56.3219 23.1318 57.0125 22.7994C57.351 22.6358 57.6896 22.4722 58.0331 22.3158C58.2006 22.2406 58.37 22.1683 58.5349 22.0864C58.5958 22.0564 58.6571 22.0238 58.7181 21.9938C58.8675 21.9206 58.8654 21.9883 58.6207 21.9598L58.3767 21.8496L58.3881 21.8565L58.2272 21.628L58.2324 21.6414C58.3475 21.9001 58.6232 22.0584 58.9068 21.9549C59.1618 21.863 59.3432 21.5408 59.2286 21.2797C59.1246 21.0431 58.915 20.8895 58.6454 20.9148C58.4978 20.9291 58.3713 21.001 58.2408 21.0673C57.8425 21.2687 57.4279 21.4409 57.0246 21.6351C56.2126 22.0252 55.4051 22.425 54.5484 22.7056C53.8984 22.9176 54.2524 23.9052 54.8996 23.6952L54.8986 23.6938Z" fill="#010101"/>
<path d="M56.5871 34.7371C58.2133 34.9786 59.8461 35.1727 61.4839 35.3201L61.5277 34.2805C61.377 34.2813 61.2263 34.2822 61.0756 34.2831C60.7892 34.2847 60.5707 34.5912 60.5952 34.8564C60.6228 35.1597 60.8818 35.3308 61.1699 35.3285C61.3206 35.3276 61.4713 35.3268 61.622 35.3259C62.2187 35.321 62.2618 34.3395 61.6659 34.2862C60.028 34.1388 58.3952 33.9447 56.7691 33.7032C56.0949 33.6029 55.9136 34.6384 56.5877 34.7388L56.5871 34.7371Z" fill="#010101"/>
<path d="M53.4631 47.6975C54.1788 48.0351 54.8688 48.4237 55.5285 48.8604C55.7567 49.0127 56.1144 48.9439 56.2591 48.7001C56.4037 48.4563 56.3516 48.1353 56.1067 47.9722C55.4483 47.5343 54.7583 47.1457 54.0413 46.8092C53.9108 46.7478 53.7988 46.7073 53.6513 46.7383C53.5227 46.764 53.3789 46.8549 53.3119 46.9709C53.1824 47.1918 53.1983 47.5732 53.4643 47.6988L53.4631 47.6975Z" fill="#010101"/>
<path d="M44.5829 56.0614C45.0524 56.8568 45.5205 57.6532 45.99 58.4485C46.1287 58.6854 46.5275 58.7128 46.7293 58.5434C46.9707 58.3414 46.9824 58.0599 46.8324 57.8052C46.3629 57.0099 45.8948 56.2135 45.4253 55.4182C45.2866 55.1812 44.8878 55.1539 44.686 55.3233C44.4446 55.5253 44.4329 55.8068 44.5829 56.0614Z" fill="#010101"/>
<path d="M30.7475 58.7766C30.7943 59.3025 30.8412 59.8283 30.8869 60.3555L30.9558 61.1326L30.9903 61.5211L31.0068 61.7042C31.0105 61.7425 31.0141 61.7809 31.0165 61.8181C31.0316 62.0187 30.9699 61.6908 31.19 61.5498L31.4446 61.4624L31.4261 61.465L31.6893 61.514L31.893 62.1203L31.5855 62.3935L31.5975 62.3876L31.33 62.4075L31.3463 62.4101C31.6178 62.4522 31.9214 62.2739 31.9643 61.988C32.0073 61.702 31.8389 61.4194 31.5497 61.3736C31.1349 61.3073 30.773 61.7066 30.9144 62.1134C31.039 62.4703 31.4515 62.6376 31.7812 62.4188C32.0596 62.235 32.0836 61.9255 32.0561 61.6274L32.0037 61.0335C31.9348 60.2564 31.867 59.4781 31.7981 58.701C31.7733 58.4263 31.5263 58.1807 31.2397 58.2144C30.9531 58.2482 30.7217 58.4871 30.7476 58.7791L30.7475 58.7766Z" fill="#010101"/>
<path d="M15.105 55.3341C14.0871 56.387 12.9945 57.3653 11.8355 58.2623C11.6089 58.4373 11.637 58.8178 11.8177 59.0058C12.0325 59.227 12.339 59.1915 12.5656 59.0165C13.7254 58.121 14.818 57.1427 15.8351 56.0883C16.3069 55.5989 15.5799 54.8431 15.1034 55.3349L15.105 55.3341Z" fill="#010101"/>
<path d="M7.86643 43.7972C6.37393 44.2595 4.90512 44.7983 3.46609 45.4065C3.20305 45.5182 3.12641 45.8903 3.25192 46.1203C3.39918 46.3902 3.70354 46.439 3.96813 46.3265C5.32079 45.7555 6.70168 45.2547 8.1028 44.8204C8.37613 44.7349 8.56672 44.4757 8.49927 44.1862C8.43901 43.9245 8.1406 43.7133 7.86488 43.7981L7.86643 43.7972Z" fill="#010101"/>
<path d="M7.58286 25.8836C5.96203 25.2898 4.3412 24.6959 2.72037 24.102V25.1936C2.84169 25.1653 2.96302 25.137 3.08245 25.1088C3.79523 24.941 3.49382 23.8512 2.77914 24.0171C2.65781 24.0454 2.53649 24.0737 2.41706 24.102C2.1744 24.1585 2 24.4055 2 24.6468C2 24.9089 2.18009 25.105 2.41706 25.1917C4.03788 25.7856 5.65871 26.3795 7.27954 26.9734C7.56769 27.079 7.90323 26.8546 7.97906 26.5775C8.06626 26.2626 7.871 25.9873 7.58096 25.8818L7.58286 25.8836Z" fill="#010101"/>
</g>
<defs>
<clipPath id="clip0_6661_5738">
<rect width="64" height="64" fill="white"/>
</clipPath>
</defs>
</svg>
