<svg width="64" height="64" viewBox="0 0 64 64" fill="none" xmlns="http://www.w3.org/2000/svg">
<path d="M30.9982 37.5764C30.9982 37.5764 31.2502 22.1092 22.0545 22.0019C12.8588 21.8947 1.30433 26.2319 0.090012 31.6493C-1.12431 37.0666 10.3492 35.7881 10.3492 35.7881C10.3492 35.7881 7.07972 42.1786 13.0041 42.9614C18.9285 43.7443 20.4906 40.2123 20.4906 40.2123C20.4906 40.2123 20.6084 47.869 25.381 46.9183C30.1537 45.9675 31 37.5784 31 37.5784L30.9982 37.5764Z" fill="#DDEFD8"/>
<path d="M31.1009 44.6014C31.1009 44.6014 30.0917 39.679 34.4566 35.8185C38.8214 31.9601 44.0314 27.2068 51.0812 29.6854C58.133 32.1639 66.5429 36.7826 63.2724 42.5244C60.0019 48.2662 52.7715 43.4233 52.7715 43.4233C52.7715 43.4233 53.8928 47.9381 47.4992 47.9992C41.1056 48.0603 40.8439 44.5994 40.8439 44.5994C40.8439 44.5994 38.1216 50.3106 31.0988 44.5994L31.1009 44.6014Z" fill="#DDEFD8"/>
<path d="M17.9929 16.6191C15.1181 16.7712 12.2657 17.5053 9.57019 18.7611C8.81977 19.1097 8.08501 19.5033 7.36824 19.9339L7.88913 20.7257C8.14403 20.4561 8.43586 20.2959 8.77601 20.222C9.02334 20.1674 9.17723 19.8459 9.12593 19.5981C9.06791 19.3184 8.82229 19.1951 8.57496 19.2497C8.08904 19.3561 7.63296 19.63 7.27034 20.0154C6.88078 20.4283 7.32014 21.0891 7.79123 20.8072C10.2578 19.3252 12.9404 18.3305 15.6799 17.8749C16.4365 17.7488 17.1961 17.6731 17.9552 17.6325C18.5482 17.6009 18.5884 16.59 17.9909 16.6203L17.9929 16.6191Z" fill="#010101"/>
<path d="M49.0892 26.8448L49.1024 26.876L49.0931 26.5457L49.0876 26.5705C49.1393 26.4733 49.1895 26.3735 49.2374 26.2754L49.9503 26.3267L50.0374 26.633C50.0304 26.901 49.9512 27.0313 49.8 27.0239C49.8521 27.0159 49.9065 27.0062 49.9601 27.0007C50.0657 26.9871 50.1727 26.976 50.2789 26.9691C50.4649 26.9559 50.6529 26.9518 50.8396 26.9627C51.2249 26.985 51.6075 27.0653 51.9765 27.1796C52.7064 27.4086 53.364 27.8368 53.9038 28.3977C54.4435 28.9585 55.2608 28.0111 54.7225 27.4527C53.6953 26.3861 52.324 25.7825 50.8798 25.6997C50.2541 25.6634 49.1024 25.6128 48.885 26.4496C48.7566 26.9386 49.1032 27.4089 49.5766 27.3789C49.9911 27.3511 50.4146 26.9013 50.2217 26.4368C50.0929 26.1278 49.8149 25.9206 49.4849 26.0388C49.2074 26.1383 48.9609 26.5338 49.0897 26.8428L49.0892 26.8448Z" fill="#010101"/>
<path d="M51.6042 24.2962C53.1162 24.9594 54.5731 25.744 55.9589 26.64C56.2422 26.8235 56.6399 26.6833 56.7622 26.4445C56.9083 26.1592 56.7366 25.8628 56.4514 25.6783C55.0656 24.7824 53.6088 23.9978 52.0968 23.3346C51.7869 23.1982 51.433 23.2577 51.2934 23.5301C51.167 23.7769 51.2944 24.1598 51.6042 24.2962Z" fill="#010101"/>
<path d="M18.1487 19.5927C17.6114 19.505 17.057 19.4772 16.5123 19.4685C15.409 19.4523 14.277 19.5643 13.2102 19.9032C12.5589 20.1088 11.9208 20.408 11.3697 20.8282C11.175 20.9762 11.0831 21.2347 11.2143 21.4538C11.328 21.6463 11.6275 21.7447 11.8236 21.594C12.0587 21.4141 12.3089 21.2561 12.5712 21.1219C12.7794 21.014 13.0096 20.9179 13.2781 20.8251C13.8273 20.6356 14.3258 20.5312 14.8532 20.4632C15.3806 20.3952 15.8623 20.3718 16.3682 20.3718C16.5797 20.3728 16.791 20.3773 17.002 20.3885C17.0901 20.3925 17.1787 20.3986 17.2672 20.4046C17.2997 20.4064 17.441 20.42 17.2997 20.4064C17.3406 20.4111 17.3809 20.4137 17.4212 20.4163C17.5942 20.4331 17.7673 20.4498 17.9391 20.4781C18.1755 20.5167 18.4175 20.3768 18.4772 20.1287C18.5321 19.8988 18.3866 19.6287 18.1502 19.59L18.1487 19.5927Z" fill="#010101"/>
</svg>
