<svg width="64" height="64" viewBox="0 0 64 64" fill="none" xmlns="http://www.w3.org/2000/svg">
<g clip-path="url(#clip0_6661_7416)">
<path d="M28.5529 30.3619C40.0448 31.6413 41.3649 25.9892 49.7314 22.5413C58.1167 19.0863 63.3636 23.2553 63.9647 30.3619C64.5583 37.4061 57.7272 44.2394 50.3007 48.3677C42.6982 52.5919 21.5889 54.1876 11.2131 47.2776C1.87474 41.0552 -0.158851 33.6348 1.54704 25.9964C3.6031 16.7933 11.67 18.1758 17.1828 21.6333C22.6937 25.0883 25.2853 30.0001 28.5529 30.3619Z" fill="#86A7A3"/>
<path d="M20.5912 38.8878C23.4692 39.774 26.5444 39.7555 29.414 38.8291C30.4418 38.4987 30.0057 36.7077 28.9695 37.0412C26.3777 37.878 23.6358 37.8996 21.0329 37.0999C19.9967 36.7818 19.555 38.5697 20.5884 38.8878H20.5912Z" fill="black"/>
<path d="M36.5901 39.3375C37.9623 39.681 39.3586 39.8732 40.7495 39.7873C41.3954 39.7464 42.0493 39.6401 42.6791 39.4152C42.9766 39.3089 43.266 39.1698 43.5474 38.9981C43.8154 38.8345 44.1102 38.5401 44.3434 38.3929H43.9146L43.9869 38.4297L43.3973 37.2479V37.2928C43.5287 36.9412 43.6627 36.5854 43.794 36.2337L43.7645 36.2542L44.1692 36.0865H44.1397C44.397 36.6017 44.6569 37.117 44.9142 37.6363L44.9196 37.6036C45.1581 36.0701 43.6064 35.4118 43.3678 36.9493L43.3625 36.982C43.2339 37.8122 43.6091 38.4624 44.137 38.536C44.3139 38.5605 44.4479 38.4583 44.6007 38.352C44.8526 38.1802 44.9973 37.6895 45 37.2928V37.2479C45.0027 36.6876 44.7454 36.2296 44.4104 36.066C43.9896 35.8575 43.6921 36.1846 43.3357 36.4668C43.0918 36.659 42.8399 36.8021 42.5772 36.9207C42.0359 37.162 41.4811 37.2806 40.9183 37.3256C39.6185 37.4319 38.2973 37.2969 37.0135 36.9739C36.5847 36.8676 36.1479 37.1456 36.0246 37.8326C35.9201 38.4174 36.1559 39.2353 36.5874 39.3416L36.5901 39.3375Z" fill="black"/>
<path d="M26.8153 46.276C30.5953 46.7387 34.3998 46.8163 38.188 46.5056L37.7777 44.5315C37.6853 44.5845 37.5929 44.6375 37.5005 44.6904C37.0983 44.92 37.0032 45.6863 37.207 46.1383C37.4516 46.6786 37.9163 46.7493 38.3212 46.5197C38.4136 46.4667 38.506 46.4138 38.5984 46.3608C39.343 45.937 38.9625 44.3232 38.188 44.3867C34.3998 44.6975 30.5953 44.6198 26.8153 44.1572C26.375 44.1042 26 44.6834 26 45.2166C26 45.8346 26.375 46.2231 26.8153 46.276Z" fill="black"/>
</g>
<defs>
<clipPath id="clip0_6661_7416">
<rect width="63" height="33" fill="white" transform="translate(1 19)"/>
</clipPath>
</defs>
</svg>
