<svg width="587" height="5" viewBox="0 0 587 5" fill="none" xmlns="http://www.w3.org/2000/svg">
<path d="M-7 1C-2.21254 1.89377 23.3823 1.69176 46.0294 2C48.2063 2.02963 51.1594 2.97821 53.2607 3C56.2062 3.03055 62.0989 1.93529 66.9198 2C75.8366 2.11969 80.5797 3.2334 83.7928 3.5C95.8449 4.5 120.753 3 128.787 3C136.822 3 172.175 4 182.62 3C185.095 2.76308 187.252 2.68393 196.279 2.5C199.493 2.43452 200.297 3.5 204.314 3.5C206.714 3.46025 208.137 2.53666 210.742 2.5C212.349 2.47739 214.059 2.99671 215.563 3C218.193 3.00576 220.032 2.05634 221.187 2.04166C249.761 1.67846 286.982 1.489 308.766 1.5M594 2.00001C588.108 2.00001 569.253 1.99994 560.254 1.99994C557.376 1.99994 554.347 1.65966 549.809 1.5C548.037 1.43766 544.55 2.55547 542.578 2.5C539.802 2.42195 539.364 1.34245 534.543 1.34245C527.841 1.2935 520.472 1.43065 512.849 1.99991C504.011 3 463.027 3.14203 422.86 3C374.168 2.82783 327.345 1.41367 321.622 1.5C319.976 1.49829 318.356 2.00198 315.997 2M308.766 1.5C311.42 1.50134 313.845 1.99819 315.997 2M308.766 1.5L315.997 2" stroke="#656565" stroke-linecap="round" stroke-linejoin="round"/>
</svg>
