<svg width="366" height="366" viewBox="0 0 366 366" fill="none" xmlns="http://www.w3.org/2000/svg">
<rect width="366" height="366" fill="white"/>
<path d="M294 139C307.517 172.135 305.372 211.442 290.239 241C277.797 265.3 255 284.209 231 294C200.142 306.589 163.768 308.401 135.501 296C108.392 284.109 77.4998 257.5 71.2322 232C66.3343 212.073 61.5153 174.41 71.2322 146.5C84.0121 109.792 100.19 91.3375 137.683 76.0424C172.371 61.8911 202.817 61.7224 233.128 78.6853C255.641 91.2836 283.503 113.269 294 139Z" fill="#19FF67"/>
<path fill-rule="evenodd" clip-rule="evenodd" d="M160.5 138C163.538 138 166 140.753 166 144.15V172.85C166 176.247 163.538 179 160.5 179C157.462 179 155 176.247 155 172.85V144.15C155 140.753 157.462 138 160.5 138Z" fill="#010101"/>
<path fill-rule="evenodd" clip-rule="evenodd" d="M196.5 138C199.538 138 202 140.753 202 144.15V172.85C202 176.247 199.538 179 196.5 179C193.462 179 191 176.247 191 172.85V144.15C191 140.753 193.462 138 196.5 138Z" fill="#010101"/>
<path fill-rule="evenodd" clip-rule="evenodd" d="M125 200.231C125 196.79 127.764 194 131.173 194H225.827C229.236 194 232 196.79 232 200.231C232 209.768 225.884 221.637 216.88 230.832C207.659 240.247 194.333 248 178.5 248C162.824 248 149.506 240.905 140.188 231.679C131.032 222.612 125 210.722 125 200.231ZM138.413 206.462C140.041 211.628 143.526 217.527 148.834 222.783C156.295 230.172 166.64 235.538 178.5 235.538C190.202 235.538 200.54 229.791 208.099 222.072C213.242 216.82 216.637 211.148 218.346 206.462H138.413Z" fill="#010101"/>
</svg>
